<?xml version="1.0" encoding="utf-8"?>
<!-- Generator: Adobe Illustrator 22.0.1, SVG Export Plug-In . SVG Version: 6.00 Build 0)  -->
<svg version="1.1" id="Capa_1" xmlns="http://www.w3.org/2000/svg" xmlns:xlink="http://www.w3.org/1999/xlink" x="0px" y="0px"
	 viewBox="0 0 475.1 475.1" style="enable-background:new 0 0 475.1 475.1;" xml:space="preserve">
<style type="text/css">
	.st0{fill:#2AD2C5;}
</style>
<g>
	<g>
		<path class="st0" d="M65.9,153.9c-8.2,0-15.1,2.9-20.8,8.6c-5.7,5.7-8.6,12.6-8.6,20.6v122.8c0,8.2,2.9,15.1,8.6,20.8
			c5.7,5.7,12.7,8.6,20.8,8.6c8.2,0,15.1-2.9,20.7-8.6c5.6-5.7,8.4-12.7,8.4-20.8V183c0-8-2.9-14.8-8.6-20.6
			C80.8,156.7,73.9,153.9,65.9,153.9z"/>
		<path class="st0" d="M106.5,349.5c0,8.8,3,16.2,9.1,22.3c6.1,6.1,13.5,9.1,22.3,9.1H159l0.3,64.8c0,8.2,2.9,15.1,8.6,20.8
			c5.7,5.7,12.6,8.6,20.6,8.6c8.2,0,15.1-2.9,20.8-8.6c5.7-5.7,8.6-12.7,8.6-20.8v-64.8h39.4v64.8c0,8.2,2.9,15.1,8.6,20.8
			c5.7,5.7,12.7,8.6,20.8,8.6c8.2,0,15.1-2.9,20.8-8.6c5.7-5.7,8.6-12.7,8.6-20.8v-64.8h21.4c8.6,0,15.9-3,22-9.1
			c6.1-6.1,9.1-13.5,9.1-22.3V159.3H106.5V349.5z"/>
		<path class="st0" d="M302.3,43.7l20.3-37.4c1.3-2.5,0.9-4.4-1.4-5.7c-2.5-1.1-4.4-0.6-5.7,1.7L294.9,40c-18.1-8-37.2-12-57.4-12
			c-20.2,0-39.3,4-57.4,12L159.6,2.3c-1.3-2.3-3.2-2.9-5.7-1.7c-2.3,1.3-2.8,3.2-1.4,5.7l20.3,37.4c-20.6,10.5-36.9,25.1-49.1,43.8
			c-12.2,18.7-18.3,39.3-18.3,61.5h264.1c0-22.3-6.1-42.8-18.3-61.5C339,68.8,322.7,54.1,302.3,43.7z M185.1,98.1
			c-2.2,2.2-4.8,3.3-7.8,3.3s-5.6-1.1-7.7-3.3c-2.1-2.2-3.1-4.8-3.1-7.8c0-3,1-5.7,3.1-7.9c2.1-2.2,4.7-3.3,7.7-3.3
			c3,0,5.7,1.1,7.8,3.3c2.2,2.2,3.3,4.8,3.3,7.9C188.4,93.3,187.3,95.9,185.1,98.1z M305.5,98.1c-2.1,2.2-4.7,3.3-7.7,3.3
			c-3,0-5.7-1.1-7.8-3.3c-2.2-2.2-3.3-4.8-3.3-7.8c0-3,1.1-5.7,3.3-7.9s4.8-3.3,7.8-3.3c3,0,5.6,1.1,7.7,3.3
			c2.1,2.2,3.1,4.8,3.1,7.9C308.6,93.3,307.6,95.9,305.5,98.1z"/>
		<path class="st0" d="M430,162.3c-5.7-5.6-12.7-8.4-20.8-8.4c-8,0-14.8,2.8-20.6,8.4c-5.7,5.6-8.6,12.5-8.6,20.7v122.8
			c0,8.2,2.9,15.1,8.6,20.8c5.7,5.7,12.6,8.6,20.6,8.6c8.2,0,15.1-2.9,20.8-8.6c5.7-5.7,8.6-12.7,8.6-20.8V183
			C438.5,174.8,435.7,167.9,430,162.3z"/>
	</g>
</g>
</svg>
