<svg xmlns="http://www.w3.org/2000/svg" xmlns:xlink="http://www.w3.org/1999/xlink" viewBox="0 0 114.38 166.03"><defs><style>.cls-1{fill:#231f20;}.cls-2{fill:url(#linear-gradient);}.cls-3{fill:url(#linear-gradient-2);}.cls-4{fill:#fff;stroke:#fff;stroke-width:1.7px;}</style><linearGradient id="linear-gradient" x1="17.54" y1="-7.86" x2="99.45" y2="143.28" gradientUnits="userSpaceOnUse"><stop offset="0" stop-color="#231f20"/><stop offset="1" stop-color="#231f20"/></linearGradient><linearGradient id="linear-gradient-2" x1="17.54" y1="-7.86" x2="99.45" y2="143.28" xlink:href="#linear-gradient"/></defs><title>Asset 2</title><g id="Layer_2" data-name="Layer 2"><g id="Layer_3" data-name="Layer 3"><path class="cls-1" d="M92.78,148.86s-.36.29-1,.85a15.59,15.59,0,0,1-2.14,1.53,5.14,5.14,0,0,1-2.48.82c-.52,0-.78-.21-.78-.62a3.7,3.7,0,0,1,.2-.92q5.13-1.65,5.13-3.18c0-.59-.33-.89-1-.89a5.74,5.74,0,0,0-2.09.51l0,0-.2.09-.08,0a13.63,13.63,0,0,0-3.64,2.27l-.44.37a15.59,15.59,0,0,1-2.14,1.53,5.14,5.14,0,0,1-2.48.82c-.52,0-.78-.21-.78-.62a4.25,4.25,0,0,1,.2-.92c3.42-1.1,5.14-2.16,5.14-3.18,0-.59-.34-.89-1-.89A7.38,7.38,0,0,0,80,147.51a12.41,12.41,0,0,0-2.41,1.7,14.39,14.39,0,0,1-5.26,2.95c2.12-2.89,3.41-4.59,3.87-5.12a80,80,0,0,0,7.52-6.23l0,0c1.8-1.51,3.17-2.69,4.07-3.52Q90,135.2,90,133.87c0-.61-.33-.92-1-.92q-1.66,0-5.64,3.81a61.69,61.69,0,0,0-5,5.37l-2.86,3.53-1.78,2.26h0l-.09.1a65.37,65.37,0,0,1-7.19,4.17v0q3.57-4.86,4-5.27c1.23-1,2.17-1.81,2.83-2.31q6.28-5.13,8.6-7.26t2.31-3.45c0-.61-.33-.92-1-.92q-1.66,0-5.64,3.81a60.19,60.19,0,0,0-5,5.37c-1,1.27-1.93,2.38-2.71,3.35a39,39,0,0,1-3.8,3.64l-.45.36-.55.44s-1.27.94-1.87.67c0,0,.45-.44.49-.49a7.57,7.57,0,0,0,.53-.6,3.79,3.79,0,0,0,.75-1.36,1.76,1.76,0,0,0,0-1,1,1,0,0,0-.72-.6,4,4,0,0,0-1.88,0,8,8,0,0,0-1.71.64l-.64.34a13.32,13.32,0,0,0-1.57,1c-.15.11-.27.23-.4.34l.11-.13a29.23,29.23,0,0,1-2.61,2l-.13.07a7,7,0,0,1-2.95,1.26c-.52,0-.78-.22-.78-.65a5.31,5.31,0,0,1,1.53-2.79c1-1.22,1.82-1.83,2.38-1.83.23,0,.34.08.34.24a1.67,1.67,0,0,1-.27.71,1.69,1.69,0,0,0-.27.68.42.42,0,0,0,.47.48,1,1,0,0,0,.84-.5,1.71,1.71,0,0,0,.35-1c0-.63-.39-1-1.18-1a7.19,7.19,0,0,0-3.11,1.1,9.59,9.59,0,0,0-2.78,2.06.32.32,0,0,0,0,.14v.06a4.53,4.53,0,0,0,1-.71,3.75,3.75,0,0,0-1,2.28c0,.81.6,1.22,1.8,1.22a7.29,7.29,0,0,0,4-1.49,16.22,16.22,0,0,0,1.66-1.27l.71-.69a3.44,3.44,0,0,0-.84,2.19c0,.84.56,1.26,1.67,1.26a7.43,7.43,0,0,0,3.87-1.66,1.43,1.43,0,0,0,.61.1,4.39,4.39,0,0,0,1.81-.82,7.08,7.08,0,0,0,.75-.54l.24-.17.39-.34.21-.17.79-.67q-10.67,13.39-10.68,16.92a.69.69,0,0,0,.78.78q1.8,0,4.49-4.35a37.57,37.57,0,0,0,3.09-6.19q.21-.65.45-1.32a3,3,0,0,1,.13-.36h0l.3-.81c.47-.24,3.43-1.81,6.49-3.74h0l.07,0-.89,1.14c-6,7.75-9.08,12.72-9.08,14.88a.69.69,0,0,0,.79.78q1.8,0,4.48-4.35a37.66,37.66,0,0,0,3.1-6.19c.13-.43.28-.87.44-1.32a4.58,4.58,0,0,1,.54-1.23l.39-.22a17.64,17.64,0,0,0,5.46-3.38,3.38,3.38,0,0,0-.82,2c0,.84.62,1.26,1.87,1.26a5.28,5.28,0,0,0,1.48-.23h0c1.25-.18,3.6-1.95,4.5-2.66l.08-.06.3-.24.08-.06a3.45,3.45,0,0,0-.8,2c0,.84.62,1.26,1.87,1.26a6.7,6.7,0,0,0,3.33-1,13,13,0,0,0,2.79-2.18c.2-.2.3-.34.3-.41A.09.09,0,0,0,92.78,148.86Zm-13.5,1.29a11,11,0,0,1,1.46-2c.79-.88,1.41-1.32,1.87-1.32.27,0,.41.1.41.31q0,1.8-3.74,3Zm3.36-11.26q4.73-5.53,6-5.53c.36,0,.54.21.54.61q0,1.26-5.41,6.1l-6.24,5.43-.47.31Q79.57,142.45,82.64,138.89ZM71.09,146q2.58-3.47,5.74-7.12,4.73-5.53,6-5.53c.37,0,.55.21.55.61q0,1.26-5.41,6.1l-6.86,6Zm-8.74,4.15c-1.22,1.4-2.28,2.1-3.16,2.1a.42.42,0,0,1-.48-.47c0-.71.58-1.65,1.74-2.83a10.79,10.79,0,0,1,2.68-2.14,1,1,0,0,1,.82,0,.48.48,0,0,1,.27.46c0,.16,0,.49-.17.58A3.12,3.12,0,0,0,62.35,150.16Zm.37,10q-3.06,5.23-4.38,5.23c-.2,0-.31-.11-.31-.34q0-.89,3.37-5.84c1.52-2.25,2.94-4.26,4.28-6h0A35.29,35.29,0,0,1,62.72,160.15Zm5.82,0c-2,3.49-3.51,5.23-4.39,5.23-.2,0-.3-.11-.3-.34q0-.89,3.36-5.84c1.52-2.25,3-4.26,4.28-6h0A35.3,35.3,0,0,1,68.54,160.15ZM90.1,146.86c.27,0,.4.1.4.31,0,1.2-1.24,2.21-3.74,3v0a11,11,0,0,1,1.47-2C89,147.3,89.64,146.86,90.1,146.86Z"/><path class="cls-2" d="M17.65,11.34V119.68H97V11.34ZM96,118.73H18.6V12.3H96Z"/><rect class="cls-3" x="22.06" y="15.76" width="70.48" height="99.51"/><path class="cls-4" d="M112.53,31.92c-.13-.38-3.35-9.34-10.87-12.45-4-1.64-8.38-1.32-13.12,1a17,17,0,0,0-1.77,1,10.21,10.21,0,0,0,1.67-7.87c-.08-.34-.19-.66-.3-1s-.29-.87-.45-1.29c0,0,0-.11-.07-.17l0-.13c-.2-.52-.4-1-.56-1.55h0c3.77-2.54,6.84-1,7-1l.5.25.11-.55A7.76,7.76,0,0,0,94.77,7c0-.08,0-.16,0-.24a6.93,6.93,0,0,0-.08-1.38.57.57,0,0,1,0-.13A6.58,6.58,0,0,0,94.29,4c0-.07-.07-.15-.11-.23a5.29,5.29,0,0,0-.69-1.05l-.15-.16a4.8,4.8,0,0,0-1-.87,5.28,5.28,0,0,0-.75-.38l-.09,0A4.84,4.84,0,0,0,90.6,1V1h-.18a7.19,7.19,0,0,0-5.66,1.57,10.73,10.73,0,0,0-1.23,1.12A12.47,12.47,0,0,0,82.41,5a1.74,1.74,0,0,0-.13.2.75.75,0,0,1-.07.12s0,.09-.07.13l-.22.36-.1.17h0c-2.94.55-7.26,5.45-8.35,10.77a9.74,9.74,0,0,0-2.28,1.7,17.22,17.22,0,0,0-3.46-2,8.64,8.64,0,0,0-5.1-.91l-.23-.16-.2-.14-.2-.14a1,1,0,0,1-.15-.11l-.16-.1a12.32,12.32,0,0,0-1.36-.68l-.21-.11-.63-.21c-.32-.11-.64-.23-1-.31a7.15,7.15,0,0,0-5.89.92h0l-.06,0h0v0a5.39,5.39,0,0,0-1.24,1.28l0,.05v0a5.38,5.38,0,0,0-.39.7,2.44,2.44,0,0,0-.1.24,4.56,4.56,0,0,0-.18.52,2.86,2.86,0,0,0-.07.28,3,3,0,0,0-.08.51,1.53,1.53,0,0,0,0,.3,4.68,4.68,0,0,0,0,.53c0,.1,0,.2,0,.3s.06.41.1.61a1.7,1.7,0,0,0,0,.22,5.4,5.4,0,0,0,.26.84,1,1,0,0,0,.07.15,6.53,6.53,0,0,0,.31.66,7.81,7.81,0,0,0,.6,1l.33.46.35-.44a7.06,7.06,0,0,1,6.3-2c.16,0,.31,0,.48,0,.07.59.1,1.18.14,1.78s.09,1.33.17,2c0,.19,0,.37.07.56a10.55,10.55,0,0,0,6,7.18,10.16,10.16,0,0,1,1.87,1.15,4.62,4.62,0,0,1,.5.37,7.7,7.7,0,0,1,1.36,1.38,1.75,1.75,0,0,1,.2.37,1,1,0,0,1,0,.19c-.09.5-.16,1-.21,1.58h0l0,.06,0,.11v.07a8,8,0,0,1-.51,1.4c0,.07-.08.12-.11.18A6.73,6.73,0,0,1,68,40.22l-.29.39c-2.08,2.27-4.11,4.57-6,6.9-4.93,6.05-9,11.11-12.15,15l-1.49,2a18.35,18.35,0,0,0,.34-4.27s-.13-.95,1.59-2.9c2.15-2.45,4.24-5.52,3.4-9.74A10.79,10.79,0,0,0,51.57,43c-.21-.31-.42-.64-.64-1a14.4,14.4,0,0,1-.75-1.52c-.82-1.93-2.79-3.43-4.71-4.89A16.87,16.87,0,0,1,42,32.37l-.33-.47v0l-.17.23-.18.25a26,26,0,0,0-3.84,7.91h0l-.17.74-.08-.08a18.64,18.64,0,0,0-14.27-3.8c-.19,0-.38,0-.57.06a15.6,15.6,0,0,0-6.07,2.17l-.08.06A7.64,7.64,0,0,0,14,41.48h-.12c-.28,0-.71,0-1,0h-.63a13.93,13.93,0,0,0-4.82,1.31,11.76,11.76,0,0,0-6.17,7.5.84.84,0,0,0-.08.14h0l0,0a12.72,12.72,0,0,0-.36,2.7c0,.16,0,.31,0,.46a12,12,0,0,0,.25,2.19A10.35,10.35,0,0,0,7,63.25l.57.27v0l0-.59a14.12,14.12,0,0,1,6.62-10.46l.1-.07c.6.87,1.16,1.79,1.73,2.73.15.26.31.51.47.77.37.61.76,1.21,1.17,1.81.25.37.49.74.75,1.09a12.15,12.15,0,0,0,2.16,2.14,13.23,13.23,0,0,0,3.14,1.81,7.37,7.37,0,0,0-.45.77c-1.34,3,.06,6.66,3.12,9A9,9,0,0,0,22,76.45a6,6,0,0,0-.5,4.71c.93,2.86,4,4.64,7.56,4.64A11.2,11.2,0,0,0,32,85.39C19,103,12.62,114.48,12.62,120.19a2.59,2.59,0,0,0,2.8,2.88,2.3,2.3,0,0,0,.67.11,1.57,1.57,0,0,0,.91-.27c.64-.44.93-1.36.87-2.73-.14-3.09,3.59-12.46,10.79-23.77,1.43-2.23,3.61-5.35,6.18-8.91a10.62,10.62,0,0,0,.64,1.43A11.45,11.45,0,0,0,45,95a7.38,7.38,0,0,0,2.48-.41,6.27,6.27,0,0,0,3.83-3.72A8.69,8.69,0,0,0,51,84.34a13.88,13.88,0,0,0,1.59-.27,12.09,12.09,0,0,0,8.5,8.29A38.47,38.47,0,0,0,65,93c1,.12,2,.25,2.89.43a12.83,12.83,0,0,1-6.31,9.44l-.57.29.48.42a9.85,9.85,0,0,0,2.31,1.48l.07,0a10.74,10.74,0,0,0,1.23.47h0a9.67,9.67,0,0,0,2.72.44,10.22,10.22,0,0,0,4-.86,10.91,10.91,0,0,0,2.51-1.5l0,0a.63.63,0,0,0,.09-.12,10.82,10.82,0,0,0,4-8,12.81,12.81,0,0,0-.69-4.53l-.2-.45c-.11-.23-.34-.73-.43-1,1.23-2,1.42-5.13.52-8.55A17.2,17.2,0,0,0,69.12,70C65,68,60.58,68.73,57.18,70a9.9,9.9,0,0,0-4.87-1.38,12.26,12.26,0,0,0-3.79.49c1.61-2.12,3.17-4.16,4.61-6l.18-.16c1.5-1.33,3.74-3,5.76-2.6a6.61,6.61,0,0,1,3.07,2.23c.35.36.69.73,1.09,1.09a13.56,13.56,0,0,0,8,2c1.45-.11,2.61.78,4.08,1.92a15.34,15.34,0,0,0,12.58,3.71,9.82,9.82,0,0,1,2.54,0c3.28.44,5.7,1.24,6.63,2.19l.74.76V73.17c0-.51-.18-12.52-7.87-19.31a16.91,16.91,0,0,0-6.26-3.48A9.49,9.49,0,0,0,82.21,46c-2.2-3.44-6-5-8.88-3.62A5.5,5.5,0,0,0,72,41.08a21.28,21.28,0,0,1,7.25-.74c.76,3,3.69,5.63,7.62,6.49a13.48,13.48,0,0,0,1.87.24h0c.21,0,.43,0,.64,0A9.81,9.81,0,0,0,90.5,47h.09a10.19,10.19,0,0,0,3.25-.89h0a7.62,7.62,0,0,0,1.27-.76l.18-.13a7.49,7.49,0,0,0,.92-.86l.16-.17a6,6,0,0,0,.73-1.08.41.41,0,0,0,0-.09,5.58,5.58,0,0,0,.51-1.38,6.77,6.77,0,0,0-1.93-6c-.08.06-.14.13-.21.19a10.12,10.12,0,0,0,1.06-1s.1-.09.14-.14l.22-.27a12.08,12.08,0,0,0,7.66-1.22,7.61,7.61,0,0,1,1.87-.65C109,32,111,32,111.93,32.45l.95.48ZM38.72,71.83c.12-.21.26-.41.36-.63,1.07-2.36.38-5.2-1.49-7.46l.25.1a2.68,2.68,0,0,1,1,.56h0A6.16,6.16,0,0,1,40,66.7l0,.08L40,67c.06.21.13.41.18.6l.08.31c.07.25.13.5.19.75A19.9,19.9,0,0,1,41,71.53,7.85,7.85,0,0,0,38.72,71.83Zm4.92-2.17-.29.48v0h0a22.59,22.59,0,0,0-1.9-6.37.83.83,0,0,0-.07-.14s0-.06,0-.15a3.81,3.81,0,0,1,0-.65,8.1,8.1,0,0,1,.39-2.13c0-.17.09-.32.15-.51s.06-.26.12-.54.05-.3.08-.47.09-.53.14-.85c.09-.62.17-1.36.23-2.2l.24.25L44.26,58l.53.51c1,1,1.24,1.2,1.27,1.61a2.16,2.16,0,0,1,0,.36c0,.15,0,.32,0,.57A15.49,15.49,0,0,1,43.64,69.66ZM70.77,50.27A22.56,22.56,0,0,0,66,52.09a25.23,25.23,0,0,0-4.8,3.14l-.3.26a6.34,6.34,0,0,0-.67.79,7,7,0,0,1-1,1.08,16.83,16.83,0,0,0-2.33.76c2.67-3.47,4.43-5.73,4.5-5.81s3.32-4.44,8.09-9.69c1.71.15,2,1.08,2,1.18A7.15,7.15,0,0,0,70.77,50.27ZM72.4,34a20.66,20.66,0,0,1,.73-2,4.38,4.38,0,0,0,.52,0c.17,0,.35,0,.53-.05A10.91,10.91,0,0,1,72.4,34Zm6.76,3.58,0,.23a22.66,22.66,0,0,0-3.6,0c2-1.22,3.93-2.17,4.76-2.57A5.87,5.87,0,0,0,79.16,37.61Z"/><path class="cls-1" d="M95.94,125.65v8.69c-.53,1.27-2,2-4.34,2.08h-.31a6.77,6.77,0,0,1-1.09-.09c-1.9-.41-3-1.07-3.24-2v-8.71H85.79v8a3,3,0,0,0,1,2.33,6.74,6.74,0,0,0,4,1.44c.08,0,.13,0,.13.09v6.95c0,.26.18.43.55.51s.55-.25.55-.76v-6.7a.09.09,0,0,1,.08-.09,7.39,7.39,0,0,0,1.49-.2q3.52-1.08,3.52-3.27v-8.35Z"/><path class="cls-1" d="M18.24,125.68h-.61v1.12h5.15v17.62h0V145H23.9V126.8h5.15v-1.12H18.24Z"/><path class="cls-1" d="M40.46,125.68h-.65a9.07,9.07,0,0,0-1.41.13q-4,.94-4,3.69v11.7a3,3,0,0,0,.64,1.93A6.47,6.47,0,0,0,39.77,145h.69a7.17,7.17,0,0,0,1.72-.21q3.7-1,3.7-3.35V129.32a2.64,2.64,0,0,0-.69-1.8A6.37,6.37,0,0,0,40.46,125.68Zm4.3,15.78a1.74,1.74,0,0,1-.64,1.25A6.31,6.31,0,0,1,40.2,144c-.24,0-.63,0-1.16-.08-2.35-.47-3.53-1.29-3.53-2.45V129.07q.74-2.16,4.65-2.32c.19,0,.59,0,1.2.08,2.27.51,3.4,1.31,3.4,2.41Z"/><path class="cls-1" d="M57.11,125.7H51.83c-.29,0-.46.21-.51.61v18.07c0,.43.23.64.55.64H56.8a9.27,9.27,0,0,0,1.72-.13c2.83-.6,4.24-1.79,4.24-3.55V129.26a3.62,3.62,0,0,0-.13-.81Q61.37,125.84,57.11,125.7Zm4.54,15.85a.57.57,0,0,1,0,.22c-.5,1.3-2,2-4.46,2.14H52.44V126.82h4.87a6.87,6.87,0,0,1,1.8.26c1.69.57,2.54,1.27,2.54,2.1Z"/><path class="cls-1" d="M74.54,125.7h-.13a9.48,9.48,0,0,0-2.53.34c-2.3.67-3.45,1.85-3.45,3.51V145H69.6V135.9h9.75V145h1.17V129.34a3.14,3.14,0,0,0-.13-.89Q79.07,125.86,74.54,125.7Zm4.81,9.09H69.6v-5.45a1.61,1.61,0,0,1,.42-1,5.82,5.82,0,0,1,4.16-1.5h.59a7.25,7.25,0,0,1,2.3.38c1.52.57,2.28,1.22,2.28,1.94v5.65Z"/><path class="cls-1" d="M37.22,71.52a4.29,4.29,0,0,0,.6-.93,4.23,4.23,0,0,0,.36-1.74A19.3,19.3,0,0,0,37.22,71.52Z"/><path class="cls-1" d="M37.09,65.41,37,65.27a2.2,2.2,0,0,0-.21-.32c-.15.21-.28.42-.41.63l-.05.08.32.46C36.79,65.89,36.93,65.65,37.09,65.41Z"/><path class="cls-1" d="M36,67.41c.08-.17.17-.36.27-.54l0-.09c-.09-.14-.17-.28-.26-.41-.08.15-.15.3-.22.45l-.12.25c.1.16.2.33.3.52A1.42,1.42,0,0,0,36,67.41Z"/><path class="cls-1" d="M35.65,64.84l.1-.16c.11-.16.23-.33.36-.5l-.37-.37c-.13.16-.23.32-.34.48l-.13.19,0,0Z"/><path class="cls-1" d="M33.26,63l.14-.16c.11-.15.23-.29.36-.44l-.1-.06-.17-.1-.12-.05-.09,0q-.2.23-.36.45l-.12.15c.14.06.28.14.41.21Z"/><path class="cls-1" d="M34.67,63.65c.1-.15.21-.29.33-.44l-.42-.3c-.12.15-.23.29-.33.44l-.15.2.42.3Z"/><path class="cls-1" d="M37.61,67.61c.1-.18.19-.38.3-.56a5.56,5.56,0,0,0-.25-.61c-.09.15-.17.32-.25.47l-.15.28c.1.2.19.4.27.59C37.56,67.73,37.58,67.67,37.61,67.61Z"/><path class="cls-1" d="M25.56,63.56c.15-.3.31-.61.5-.92l-.08,0-.33.05c-.1.09-.19.19-.28.28l0,0c.05.18.12.36.19.57Z"/><path class="cls-1" d="M31.89,62.39l.12-.15c.12-.14.23-.28.36-.42l-.55-.16c-.13.14-.25.3-.37.45l-.09.11h0Z"/><path class="cls-1" d="M28.5,61.73h.09l.13-.17.14-.18a6,6,0,0,0-.74.09,1.36,1.36,0,0,0-.12.17l-.05.07h.55Z"/><path class="cls-1" d="M25.56,67.56a2.78,2.78,0,0,1-.22-.42,13.22,13.22,0,0,0-.3,1.68,8.32,8.32,0,0,0,.44.73,14.61,14.61,0,0,1,.22-1.73C25.66,67.73,25.61,67.65,25.56,67.56Z"/><path class="cls-1" d="M24.59,64.31c-.12.28-.23.54-.32.79a5,5,0,0,0,0,1.76,14.2,14.2,0,0,1,.44-1.52c-.07-.33-.12-.67-.16-1Z"/><path class="cls-1" d="M26.17,64.72a1.74,1.74,0,0,0-.1.19c.1.2.2.4.31.6a.31.31,0,0,1,.05-.1l.06-.14a2.68,2.68,0,0,1-.29-.62Z"/><path class="cls-1" d="M25.69,65.92c0,.08,0,.17.08.25a4.36,4.36,0,0,0,.19.58,1.21,1.21,0,0,1,.05-.18.88.88,0,0,0,0-.15c-.12-.19-.23-.39-.34-.6Z"/><path class="cls-1" d="M30.42,61.85l.37-.42a5.35,5.35,0,0,0-.55,0h-.11c-.12.13-.23.27-.33.4l-.06.07.6.11Z"/><path class="cls-1" d="M29.42,72.63l.39.17c0-.27,0-.57,0-.89l-.06,0-.43-.24c0,.34,0,.66,0,.94Z"/><path class="cls-1" d="M28.68,67c-.13.38-.24.74-.33,1.09l.43.37c.1-.39.22-.81.38-1.29C29,67.14,28.84,67.09,28.68,67Z"/><path class="cls-1" d="M29.71,71a.76.76,0,0,1,.18.09c0-.28.08-.57.13-.86v-.08l-.46-.25V70c-.06.29-.11.6-.14.88A2.69,2.69,0,0,0,29.71,71Z"/><path class="cls-1" d="M13,46.93h0c-.28.15-.58.3-.87.47l.1.07.41.3.76-.4.14-.07L13.13,47Z"/><path class="cls-1" d="M18.08,43.86c-.58-.14-1.15-.26-1.69-.35a16.42,16.42,0,0,0-4.75,1.55l.67.3A15.29,15.29,0,0,1,18.08,43.86Z"/><path class="cls-1" d="M14.85,48.64l-.82.41.09.09.36.39c.27-.14.53-.26.79-.38L15.5,49c-.15-.15-.31-.32-.48-.48Z"/><path class="cls-1" d="M19.67,53.86c-.55.22-1.13.46-1.74.75.07.07.23.25.47.48.64-.3,1.24-.54,1.71-.73l-.39-.44Z"/><path class="cls-1" d="M10.64,45.62l-.25.15a5.82,5.82,0,0,0-.58.34l.07,0,.23.09.19.1.14.07c.29-.19.59-.36.83-.49C11.06,45.8,10.85,45.7,10.64,45.62Z"/><path class="cls-1" d="M16.82,50.93l.26-.11-.42-.51-.22.1c-.3.14-.61.28-.92.44l.3.43.06.09C16.2,51.21,16.51,51.07,16.82,50.93Z"/><path class="cls-1" d="M18.12,52.85l.34-.14-.37-.54-.24.11c-.35.14-.7.3-1.07.48.12.17.23.35.34.53C17.46,53.13,17.8,53,18.12,52.85Z"/><path class="cls-1" d="M7.81,45.27l-.39.28a7.82,7.82,0,0,1,.88.11c.22-.16.44-.3.66-.44l0,0a7.44,7.44,0,0,0-1-.09Z"/><path class="cls-1" d="M27.8,48.52a18.48,18.48,0,0,0-10.16,1.35l.41.5a17.3,17.3,0,0,1,10.81-1C28.46,49,28.12,48.77,27.8,48.52Z"/><path class="cls-1" d="M16.49,48.59a17,17,0,0,1,9.78-1.14c-.47-.31-.9-.58-1.31-.82A18.15,18.15,0,0,0,16,48.1Z"/><path class="cls-1" d="M9,44.43a8,8,0,0,1,1,.13,14.9,14.9,0,0,1,2.88-1.24h-.5a12.65,12.65,0,0,0-2.18.4C9.86,43.91,9.45,44.15,9,44.43Z"/><path class="cls-1" d="M21.66,50.93l.45.53a18.55,18.55,0,0,1,4.47-.56,14.92,14.92,0,0,1,4.62.7c-.28-.3-.57-.6-.88-.9A17.89,17.89,0,0,0,21.66,50.93Z"/><path class="cls-1" d="M14.56,46.82a15.55,15.55,0,0,1,8.14-1.35c-.5-.23-1-.44-1.51-.63H21.1a17,17,0,0,0-7,1.59l.47.36Z"/><path class="cls-1" d="M19.57,56.15l.58.47c.55-.24,1.14-.48,1.71-.68-.21-.16-.41-.33-.59-.49C20.71,55.66,20.12,55.91,19.57,56.15Z"/><path class="cls-1" d="M34,66.67a2.29,2.29,0,0,1-.1.23c.11.13.23.28.35.45l.07-.18.18-.4c-.1-.14-.22-.28-.35-.43Z"/><path class="cls-1" d="M33,65.24c-.06.1-.11.2-.16.3l-.09.17.39.35.06-.13c.06-.12.13-.24.2-.36h0C33.25,65.45,33.11,65.34,33,65.24Z"/><path class="cls-1" d="M33.48,64.43c0,.06-.07.12-.11.17l.4.33.1-.16.2-.32c-.13-.11-.27-.21-.41-.31A3.31,3.31,0,0,0,33.48,64.43Z"/><path class="cls-1" d="M32.33,63.38l-.15.23,0,0-.06.09h0l.45.26.08-.13.18-.26,0,0C32.6,63.52,32.47,63.44,32.33,63.38Z"/><path class="cls-1" d="M33.88,68.14c-.1-.16-.22-.33-.34-.5a17.32,17.32,0,0,0-1.22,4.54l-.08.7,0,.45h.51c0-.1,0-.2,0-.3v-.1l.06-.66A17.06,17.06,0,0,1,33.88,68.14Z"/><path class="cls-1" d="M35.48,68.41c-.09-.19-.18-.36-.3-.57a18.49,18.49,0,0,0-1.32,4.45v0h0v.1l-.1.65s0,.08,0,.12a.17.17,0,0,0,0,.07h0l.49-.07v0a.13.13,0,0,0,0-.06l.1-.65A17.61,17.61,0,0,1,35.48,68.41Z"/><path class="cls-1" d="M34.87,66.06q.15-.28.33-.57c-.12-.12-.24-.26-.37-.38l-.25.44-.07.11.35.41Z"/><path class="cls-1" d="M30.26,67.33c-.18.52-.34,1-.46,1.52a.83.83,0,0,1,0,.15s0,.1,0,.15a3.57,3.57,0,0,0,.46.26c0-.1.05-.2.08-.31a1.17,1.17,0,0,0,0-.2,13.73,13.73,0,0,1,.5-1.63A2.64,2.64,0,0,1,30.26,67.33Z"/><path class="cls-1" d="M21.46,57.56l.7.44c.62-.23,1.22-.43,1.8-.61l-.73-.46Q22.39,57.2,21.46,57.56Z"/><path class="cls-1" d="M26.44,58.71l-.88-.42c-.61.16-1.24.35-1.87.56l.83.39C25.15,59.05,25.8,58.87,26.44,58.71Z"/><path class="cls-1" d="M31.21,63.24l.09-.12,0,0,0,0,0,0L31,62.86l-.1,0-.06.08A4.12,4.12,0,0,1,31.21,63.24Z"/><path class="cls-1" d="M31.43,70.74,31,70.61a16.46,16.46,0,0,0-.26,2.47l.5.11a16.17,16.17,0,0,1,.24-2.43Z"/><path class="cls-1" d="M37.07,68.7c-.08-.25-.17-.47-.25-.67a15.14,15.14,0,0,0-.79,1.9,18.71,18.71,0,0,0-.73,2.95,5.56,5.56,0,0,0,.55-.27,19.9,19.9,0,0,1,.65-2.5C36.65,69.68,36.83,69.23,37.07,68.7Z"/><path class="cls-1" d="M32.76,66.74h0l-.37-.36a16.78,16.78,0,0,0-.93,2.48c0,.09-.05.18-.07.26-.08.25-.16.51-.22.75l.48.17c.1-.44.24-.92.4-1.44A17.38,17.38,0,0,1,32.76,66.74Z"/><path class="cls-1" d="M40.18,80.19h0a17.23,17.23,0,0,1,2-3.23c-.16-.12-.32-.22-.48-.32a18.49,18.49,0,0,0-2.09,3.47C39.79,80.15,40,80.17,40.18,80.19Z"/><path class="cls-1" d="M41.77,84.21c-.08.24-.17.49-.24.74.15,0,.3,0,.44,0l.18,0c.09-.3.18-.59.28-.87h0l-.62,0Z"/><path class="cls-1" d="M41.75,81.06h-.64L41,81.3c-.06.12-.12.24-.17.37h.62l.21-.43C41.68,81.18,41.72,81.12,41.75,81.06Z"/><path class="cls-1" d="M47.31,78.67c-.05-.25-.11-.48-.17-.69a15.63,15.63,0,0,0-1,1.23,2.06,2.06,0,0,1,.22.7C46.71,79.42,47,79,47.31,78.67Z"/><path class="cls-1" d="M40.47,82.58l-.19.54.59.06c.07-.23.16-.44.24-.66v0l-.6,0Z"/><path class="cls-1" d="M45.21,83.38l-.21.77c2.34-1,2.48-3.71,2.48-4.31l-.71,1A3.61,3.61,0,0,1,45.21,83.38Z"/><path class="cls-1" d="M37.13,81.78c0,.11-.07.22-.09.33l.49.22,0,0c0-.11.06-.22.09-.33l0-.17-.54-.23A1.42,1.42,0,0,0,37.13,81.78Z"/><path class="cls-1" d="M43.23,80a1.56,1.56,0,0,0,.17,2.15h0a.94.94,0,0,0,.5.14,1.87,1.87,0,0,0,1.47-1,1.56,1.56,0,0,0-.18-2.15,1.18,1.18,0,0,0-1.08,0A2.22,2.22,0,0,0,43.23,80Zm1.14-.33a.56.56,0,0,1,.53,0,.6.6,0,0,1,.23.52,1.72,1.72,0,0,1-.25.83,1.48,1.48,0,0,1-.82.69.44.44,0,0,1-.15,0,.36.36,0,0,1-.21,0c-.27-.16-.33-.76,0-1.35A1.61,1.61,0,0,1,44.37,79.71Z"/><path class="cls-1" d="M42.58,82.41h-.13l-.12.28c-.08.16-.15.33-.22.51.18,0,.36,0,.54-.06h.11a3.17,3.17,0,0,1,.17-.37l0-.06a1.82,1.82,0,0,1-.31-.31Z"/><path class="cls-1" d="M40.06,83.93a1.82,1.82,0,0,1-.07.25c-.05.2-.11.41-.16.62l.58.08c.05-.23.11-.44.17-.65l.06-.22a4.63,4.63,0,0,1-.52-.07Z"/><path class="cls-1" d="M38.38,83.8c-.05.19-.1.39-.14.6l.57.17a5.29,5.29,0,0,1,.13-.6c0-.09.05-.18.07-.27l-.57-.17Z"/><path class="cls-1" d="M40.05,75.86a16.55,16.55,0,0,0-2.65,5l.54.22a16.08,16.08,0,0,1,2.66-5Z"/><path class="cls-1" d="M23.3,52.67c.16.16.34.32.56.52a18.11,18.11,0,0,1,8.66-.1l-.67-.78A19.56,19.56,0,0,0,23.3,52.67Z"/><path class="cls-1" d="M39.87,81a5.86,5.86,0,0,1-.58-.1l-.09.2-.14.35h0l.54.13c.06-.14.11-.28.17-.41S39.85,81,39.87,81Z"/><path class="cls-1" d="M38.74,82.39a3.07,3.07,0,0,0-.11.36l.56.16c0-.14.08-.28.13-.41l.06-.2-.57-.12A1.72,1.72,0,0,1,38.74,82.39Z"/><path class="cls-1" d="M43.63,84.15l-.22.55a6.77,6.77,0,0,0,.7-.2l.27-.65.09-.2c-.23.06-.46.13-.71.18A3.05,3.05,0,0,1,43.63,84.15Z"/><path class="cls-1" d="M35.21,79a11.45,11.45,0,0,1,2.29-4.24h0c-.2-.06-.39-.12-.86.19a10,10,0,0,0-1.76,3.29A.81.81,0,0,0,35.21,79Z"/><path class="cls-1" d="M50,86.54c0-.19-.08-.36-.13-.53-.44,0-1,0-1.61,0,0,.16-.07.33-.13.54C48.89,86.55,49.51,86.53,50,86.54Z"/><path class="cls-1" d="M35.63,80.84a.56.56,0,0,1,0,.12l-.06.23.09.06.43.3.06-.26c0-.05,0-.1,0-.16l0,0C36,81,35.79,80.94,35.63,80.84Z"/><path class="cls-1" d="M48.22,84.46a1.55,1.55,0,0,1,.07.23l.08.12a1.74,1.74,0,0,0,.11.18h.08c.36,0,.69,0,1,0-.06-.14-.13-.28-.19-.41l-.07-.13Z"/><path class="cls-1" d="M40.91,88.38h0l.43-.18.16-.07a5.75,5.75,0,0,1-.42-.43l-.22.09-.35.15c.12.14.25.29.39.43Z"/><path class="cls-1" d="M44,89c-.17-.13-.33-.27-.48-.41l-.08,0h0c.2.14.41.27.59.38Z"/><path class="cls-1" d="M44.83,78.35a1.64,1.64,0,0,1,.6.17c.25-.32.49-.61.72-.86l.47-.53,0,0,0,0c-.09-.17-.2-.34-.3-.5h0l-.06.06-.09.1-.58.65C45.4,77.64,45.13,78,44.83,78.35Z"/><path class="cls-1" d="M42.59,87.71l.17,0,0-.06a1.32,1.32,0,0,1-.12-.2,1,1,0,0,1-.07-.15l0-.07-.26.08-.38.12.45.42Z"/><path class="cls-1" d="M42.19,76l.45.31,0,0a16,16,0,0,1,1.88-1.87,5.32,5.32,0,0,0-.46-.37A16.33,16.33,0,0,0,42.19,76Z"/><path class="cls-1" d="M42.38,74.05l.07,0c.26-.24.51-.45.74-.64a1.67,1.67,0,0,0-.6-.23h0c-.24.2-.43.37-.69.62Z"/><path class="cls-1" d="M41.49,80.26l.67,0a17.65,17.65,0,0,1,2.73-3.77l.6-.59a2.39,2.39,0,0,1,.23-.22,1.34,1.34,0,0,1-.11-.14l-.26-.31-.38.36,0,0-.5.51A18.35,18.35,0,0,0,41.49,80.26Z"/><path class="cls-1" d="M41.2,75.38c.21-.24.43-.49.64-.7l-.22-.1-.34-.16c-.21.22-.44.48-.65.73l0,.06a6,6,0,0,1,.55.24Z"/><path class="cls-1" d="M39.49,74.68a7,7,0,0,1,.5-.57l-.22-.06a3.34,3.34,0,0,0-.43-.1c-.18.19-.36.42-.53.63l-.07.08.64.14Z"/><path class="cls-1" d="M36.35,80.33h0a15.54,15.54,0,0,1,2.46-4.83,5.84,5.84,0,0,0-.63-.13A15.82,15.82,0,0,0,35.85,80Z"/><path class="cls-1" d="M28.15,69c0,.25-.1.51-.14.75a2.25,2.25,0,0,0,.3.24l.16.12c0-.21.07-.44.12-.67l0-.15-.44-.38Z"/><path class="cls-1" d="M29.69,75.2l.51,0,0-.19c0-.12-.05-.24-.07-.37l-.51,0a3.43,3.43,0,0,0,.06.34A1.29,1.29,0,0,0,29.69,75.2Z"/><path class="cls-1" d="M30,76.45h.53s0-.09,0-.14-.07-.26-.1-.4h0l-.51,0c0,.11.06.23.09.33S29.94,76.39,30,76.45Z"/><path class="cls-1" d="M30,80.88l.08.15c.18,0,.35-.08.51-.12l-.15-.29a1.62,1.62,0,0,0-.1-.18,16,16,0,0,1-.72-1.54,3.7,3.7,0,0,1-.37.42c.21.5.44,1,.68,1.43A.83.83,0,0,1,30,80.88Z"/><path class="cls-1" d="M26.88,81.77l0,.09c.08.16.17.32.25.46s.42.09.63.13h0L27.59,82a1.09,1.09,0,0,0-.08-.15C27.29,81.84,27.07,81.8,26.88,81.77Z"/><path class="cls-1" d="M31,81.58l-.51.12,0,.06c.16.25.33.52.49.74l.32-.08.2-.06c-.18-.23-.35-.51-.52-.77Z"/><path class="cls-1" d="M28.14,75.32s0,.08,0,.13l.5-.12s0-.1,0-.16,0-.2-.05-.3h-.06l-.44.12c0,.09,0,.18,0,.27Z"/><path class="cls-1" d="M29.32,81.88l-.57,0,0,.07c.14.22.27.45.41.66h0a2.19,2.19,0,0,0,.36,0h.2c-.13-.18-.25-.38-.37-.58Z"/><path class="cls-1" d="M28.9,81.16c-.19-.35-.38-.74-.59-1.21l-.47.21c.16.36.33.7.49,1Z"/><path class="cls-1" d="M27.73,66.54a3.9,3.9,0,0,1-.42-.32c0,.06,0,.12-.07.19l-.12.29c.14.18.27.36.39.49C27.58,67,27.66,66.74,27.73,66.54Z"/><path class="cls-1" d="M27.86,71.79a4.71,4.71,0,0,0,.48.29h0c0-.3,0-.67,0-1.09-.17-.13-.33-.27-.47-.39C27.88,71.07,27.86,71.46,27.86,71.79Z"/><path class="cls-1" d="M27.13,68.73c0-.17.07-.33.11-.5s0-.11,0-.17l-.41-.49,0,.09c-.05.17-.09.35-.13.52l.38.51Z"/><path class="cls-1" d="M26.55,69.16a14.39,14.39,0,0,0-.13,1.48c.14.14.3.27.45.4l0,0c0-.4,0-.86.08-1.37Z"/><path class="cls-1" d="M31.61,76.56l.56.1a1.34,1.34,0,0,0-.07-.18c0-.14-.09-.27-.13-.42L31.42,76c0,.12.07.23.11.35S31.58,76.48,31.61,76.56Z"/><path class="cls-1" d="M30.68,77.2l-.54,0a16.21,16.21,0,0,0,1,2.46l.11.24c.12.24.23.49.35.7.15-.06.31-.12.47-.2-.22-.39-.45-.83-.67-1.33A15.85,15.85,0,0,1,30.68,77.2Z"/><path class="cls-1" d="M27.08,73.82l-.52.25c0,.2,0,.39,0,.58v.14l.05,0,.46-.2c0-.07,0-.14,0-.21A4.77,4.77,0,0,1,27.08,73.82Z"/><path class="cls-1" d="M23.8,81.55c-.26-.19-.53-.41-.78-.63l0,0c.1.29.2.56.3.8A5,5,0,0,0,24.5,83C24.27,82.56,24,82.09,23.8,81.55Z"/><path class="cls-1" d="M25.11,81.48c.17.1.35.21.53.3l-.07-.16a1,1,0,0,0-.07-.15c-.22-.06-.44-.14-.65-.22h0a.3.3,0,0,0,0,.1Z"/><path class="cls-1" d="M27.71,83.17a13.92,13.92,0,0,0,.89,1.18,5.76,5.76,0,0,0,.59,0h.06c-.26-.29-.54-.65-.85-1.07Z"/><path class="cls-1" d="M25.9,82.65l-.45-.16a13.59,13.59,0,0,0,.91,1.44,8,8,0,0,0,.82.25,14.22,14.22,0,0,1-1-1.44Z"/><path class="cls-1" d="M32.38,81.05l-.4.19a16.4,16.4,0,0,0,1.47,2L33.9,83a14.47,14.47,0,0,1-1.46-2Z"/><path class="cls-1" d="M31.91,83l-.47.11c.21.27.42.51.61.72l.11,0,.4-.14c-.19-.21-.38-.43-.58-.68Z"/><path class="cls-1" d="M29.7,83.32c.27.36.52.67.74.92.19,0,.37-.08.55-.12h0c-.21-.23-.45-.5-.71-.83Z"/><path class="cls-1" d="M26.47,81l.62.11C27,81,27,80.82,27,80.7l-.11-.27a3.31,3.31,0,0,1-.55,0,1.07,1.07,0,0,1,.07.19C26.4,80.77,26.43,80.87,26.47,81Z"/><path class="cls-1" d="M27.13,75.35l-.41.2-.08,0s0,.07,0,.1a4.06,4.06,0,0,1,.51,0l0-.26Z"/><path class="cls-1" d="M25.64,74.59l-.44.33-.09.08c0,.17,0,.34,0,.51v.09l.51-.32v-.15C25.64,75,25.64,74.78,25.64,74.59Z"/><path class="cls-1" d="M36.87,82.92a1.55,1.55,0,0,1,0,.21q-.06.3-.12.63l.1,0a.57.57,0,0,0,.13.08l.2.08.12,0c0-.23.08-.44.12-.64s0-.15,0-.22l-.06,0Z"/><path class="cls-1" d="M24.5,80.34c.2.09.4.16.62.24l0-.11a.57.57,0,0,1,0-.14,2.77,2.77,0,0,1-.64-.26.19.19,0,0,1,0,.07A1.18,1.18,0,0,0,24.5,80.34Z"/><path class="cls-1" d="M23.21,79.71c-.09-.33-.18-.67-.25-1l-.06.07-.2.25c0,.13,0,.27,0,.4v0l.54.29Z"/><path class="cls-1" d="M24.18,75.86c-.16.19-.33.38-.48.57,0,.07,0,.14,0,.21a.19.19,0,0,1,0,.08l.42-.36.07-.06a1.49,1.49,0,0,0,0-.21C24.19,76,24.19,75.94,24.18,75.86Z"/><path class="cls-1" d="M80.05,25l-.23-.08c-.06.16-.13.32-.19.47l.22.08.5.17c.07-.15.13-.29.2-.47C80.37,25.14,80.21,25.08,80.05,25Z"/><path class="cls-1" d="M78.59,14.76a17.77,17.77,0,0,1-1.47-3.39l-.25.38a17.72,17.72,0,0,0,1.66,3.67Q78.55,15.09,78.59,14.76Z"/><path class="cls-1" d="M77.35,28.7l-.43.41h0c.17.05.33.11.51.15l.09-.06.43-.34-.52-.13Z"/><path class="cls-1" d="M72.49,26.83l.15.11a3.94,3.94,0,0,1,.18-.48c-.19-.14-.36-.27-.51-.4,0,.17,0,.38-.07.6Z"/><path class="cls-1" d="M72.7,24.36c-.06.16-.12.34-.17.52a9.74,9.74,0,0,0,.83.68c.1-.13.21-.26.32-.38C73.3,24.89,73,24.62,72.7,24.36Z"/><path class="cls-1" d="M73.61,23.08l-.24-.22c-.08.15-.17.3-.25.46l.12.09a.52.52,0,0,0,.11.1,12.59,12.59,0,0,0,1.16,1,2.73,2.73,0,0,1,.48-.25,14.82,14.82,0,0,1-1.25-1Z"/><path class="cls-1" d="M74.26,21.59,74,22c.17.16.37.32.56.48l.2.16a15.23,15.23,0,0,0,2.05,1.47l.12-.49h0a15.09,15.09,0,0,1-1.55-1.08C74.93,22.19,74.57,21.88,74.26,21.59Z"/><path class="cls-1" d="M76.2,29.87,76,29.81l-.1.07c-.13.1-.28.2-.42.29l.07,0,.18.06a5,5,0,0,0,.66-.32Z"/><path class="cls-1" d="M72.48,28.75l0,0a2.75,2.75,0,0,1-.08-.65l-.11-.06-.1-.06c0,.22,0,.43.06.63Z"/><path class="cls-1" d="M70.53,27.27c0-.15,0-.31,0-.45a2.53,2.53,0,0,0,0-.28,12.84,12.84,0,0,1-1.08-1.26,7.3,7.3,0,0,0,0,.82A13.3,13.3,0,0,0,70.53,27.27Z"/><path class="cls-1" d="M70.59,24.35c-.31-.38-.57-.73-.78-1v.05a5.18,5.18,0,0,0-.17.56A13.77,13.77,0,0,0,70.5,25C70.52,24.8,70.55,24.57,70.59,24.35Z"/><path class="cls-1" d="M71,29a12.6,12.6,0,0,1-1.15-1,4.27,4.27,0,0,0,.87,1.41c.2.15.42.3.67.46v0A8.35,8.35,0,0,1,71,29Z"/><path class="cls-1" d="M72,23.68c-.14-.15-.3-.31-.43-.46a1.34,1.34,0,0,1-.07.18c0,.12-.09.24-.12.36l.49.51.07.06c.05-.18.11-.36.17-.53Z"/><path class="cls-1" d="M72.6,22.78c.09-.17.17-.32.25-.45l0,0c-.2-.21-.4-.43-.56-.63l-.11.17a1.56,1.56,0,0,0-.16.28c.17.2.38.42.58.63Z"/><path class="cls-1" d="M71.53,28.1h0c0-.21,0-.44,0-.66l-.13-.09-.13-.11a5.29,5.29,0,0,0,.15.57l.06.23Z"/><path class="cls-1" d="M71.55,25.39l-.34-.34v.06c0,.2,0,.4,0,.6s.24.22.36.32l.08.07c0-.18,0-.4.08-.61Z"/><path class="cls-1" d="M72.52,30l.14.56h0l.38.08.3-.13.07,0c-.31-.14-.6-.3-.87-.45Z"/><path class="cls-1" d="M80.42,23.62l-.18-.07c0,.16-.07.31-.11.46v0l.22.08c.16.07.33.14.51.2,0-.17.08-.33.11-.49C80.77,23.77,80.6,23.69,80.42,23.62Z"/><path class="cls-1" d="M41.46,90l0,0-.5-.39-.11,0c-.18.09-.37.17-.55.27l.46.4Z"/><path class="cls-1" d="M79.21,26.27l0,.05c-.07.13-.14.26-.22.39l.16.06.54.16a.22.22,0,0,1,0-.08l.08-.1.09-.17a.31.31,0,0,1,.05-.1l-.55-.16Z"/><path class="cls-1" d="M78.58,27.57l-.18-.05-.32.39,0,0,.14,0a4.44,4.44,0,0,0,.52.15l.37-.42Z"/><path class="cls-1" d="M79.08,17.82a4,4,0,0,0-1-.41A19,19,0,0,0,80.27,19,3.86,3.86,0,0,0,79.08,17.82Z"/><path class="cls-1" d="M80.39,22.53l.13.06.61.26c0-.12,0-.25,0-.37v-.16L80.41,22C80.41,22.17,80.4,22.35,80.39,22.53Z"/><path class="cls-1" d="M80.45,20.3l-.17-.09a5.58,5.58,0,0,1,.09.61l.26.14.45.24a5,5,0,0,0-.11-.62C80.8,20.5,80.62,20.4,80.45,20.3Z"/><path class="cls-1" d="M79.17,21.35l-.16-.1c0,.21,0,.4,0,.58l.23.13.41.23c0-.16,0-.32,0-.48v-.07Z"/><path class="cls-1" d="M78.8,24.56l-.16-.07c0,.17-.1.33-.15.47l.16.08.31.13c.06-.15.13-.31.18-.46Z"/><path class="cls-1" d="M79,23.55l.46.22c0-.15.07-.31.1-.49L79,23h0c0,.15,0,.33-.08.51Z"/><path class="cls-1" d="M78.1,25.89l-.24.44.11.05,0,0,.24.09c.08-.12.15-.26.23-.39l0,0L78.25,26Z"/><path class="cls-1" d="M77.32,27.71l.07-.07.28-.33h0l0,0-.11,0-.08,0c-.06.17-.12.32-.18.47Z"/><path class="cls-1" d="M77.53,23.94c0,.17-.09.33-.14.49l.15.08a2.69,2.69,0,0,0,.29.16c.06-.15.11-.31.16-.47h0L77.66,24Z"/><path class="cls-1" d="M77.94,22.43l-.16-.1c0,.18,0,.37,0,.54l.19.12.3.18c0-.19,0-.36.07-.53Z"/><path class="cls-1" d="M87.1,5.59a5.43,5.43,0,0,0-.06.55,5.19,5.19,0,0,1,1.38,1.13c.17-.07.33-.14.49-.19A5.29,5.29,0,0,0,87.1,5.59Z"/><path class="cls-1" d="M84.27,14.15c0,.12,0,.25,0,.39.28-.28.58-.57.84-.81a3.15,3.15,0,0,0,0-.39C84.76,13.66,84.5,13.91,84.27,14.15Z"/><path class="cls-1" d="M85.08,17c0-.19,0-.36,0-.52-.29.3-.57.59-.83.89,0,.17,0,.36-.06.55C84.5,17.57,84.78,17.26,85.08,17Z"/><path class="cls-1" d="M84.37,15.65c0,.16,0,.32,0,.48.26-.28.54-.57.84-.86v-.45C84.89,15.11,84.62,15.38,84.37,15.65Z"/><polygon class="cls-1" points="85.24 14.72 85.24 14.72 85.24 14.72 85.24 14.72"/><path class="cls-1" d="M85.43,8.27,85,8.62l-.08.07,0,.37L85,9c.15-.12.3-.24.47-.36,0-.11,0-.22,0-.33Z"/><path class="cls-1" d="M84.16,22.26c-.14.38-.3.77-.46,1.16L84,23c.32-.55.63-1.11.9-1.67C84.66,21.63,84.4,22,84.16,22.26Z"/><path class="cls-1" d="M84.88,18.28c-.3.33-.58.66-.85,1,0,.23-.08.44-.13.65.24-.3.51-.63.84-1a2,2,0,0,1,.05-.24Z"/><path class="cls-1" d="M82.36,24.86l0,.07c0,.08.09.17.14.26.14-.23.3-.49.51-.81l.39-1.11C83,23.87,82.65,24.39,82.36,24.86Z"/><path class="cls-1" d="M87.11,7.76l.06.08v0l.35-.18.1,0A3.42,3.42,0,0,0,87,6.92Q87.05,7.34,87.11,7.76Z"/><path class="cls-1" d="M79.57,20.39c0-.21-.08-.43-.14-.67a11.54,11.54,0,0,1-1.19-.81,15.67,15.67,0,0,1-1.83-1.64,5.4,5.4,0,0,0-.6.09,16.75,16.75,0,0,0,2.12,1.94A16.09,16.09,0,0,0,79.57,20.39Z"/><path class="cls-1" d="M88,4.77a3.51,3.51,0,0,0-.66.27A6.62,6.62,0,0,1,89.8,6.83l.55-.11A6.32,6.32,0,0,0,88,4.77Z"/><path class="cls-1" d="M85.05,19.63c-.07.26-.14.52-.22.75.24-.29.54-.65.87-1,.1-.27.17-.5.24-.71C85.61,19,85.32,19.32,85.05,19.63Z"/><path class="cls-1" d="M89.09,4.62a6.9,6.9,0,0,1,2.29,2H92a6,6,0,0,0-.37-.56A3.44,3.44,0,0,0,89.09,4.62Z"/><path class="cls-1" d="M84.84,7.09v.09c0,.08,0,.17,0,.25h0l.49-.36c0-.1,0-.22,0-.33v0l-.3.22A1.56,1.56,0,0,1,84.84,7.09Z"/><path class="cls-1" d="M84.94,12.3c0-.08,0-.16-.07-.24l0-.09c-.28.25-.56.51-.84.79q0,.16.09.36C84.34,12.87,84.63,12.59,84.94,12.3Z"/><path class="cls-1" d="M83.34,5.82l0,0a12.35,12.35,0,0,1,1.48-1.21c.08-.19.17-.37.25-.54l-.17.11a3.21,3.21,0,0,0-.5.31,10.75,10.75,0,0,0-1,1.16Z"/><path class="cls-1" d="M84.44,5.76a14.07,14.07,0,0,0-2.37,2.32c-.13.3-.26.61-.39.94a13.22,13.22,0,0,1,2.67-2.83Z"/><path class="cls-1" d="M80.73,12.19a13.49,13.49,0,0,1,3.48-4.28V7.57A14.52,14.52,0,0,0,81,11.27C80.87,11.57,80.79,11.88,80.73,12.19Z"/><path class="cls-1" d="M78.81,13.1a17.43,17.43,0,0,1-1-2.72h0a.39.39,0,0,1-.08.1l-.1.14-.07.1a16.31,16.31,0,0,0,1.11,3C78.74,13.53,78.78,13.32,78.81,13.1Z"/><path class="cls-1" d="M79.25,11.13a15.22,15.22,0,0,1-.47-1.78l-.28.3a12.36,12.36,0,0,0,.6,2.09C79.15,11.52,79.2,11.32,79.25,11.13Z"/><path class="cls-1" d="M85.13,5.63l.37-.26s0-.06,0-.09l0-.15a.83.83,0,0,1,0-.15,3.37,3.37,0,0,0-.31.21l-.17.11L85,5.72Z"/><path class="cls-1" d="M79.9,9.07c0-.24-.07-.45-.09-.65l-.31.25c0,.36.11.71.18,1C79.75,9.5,79.82,9.29,79.9,9.07Z"/><path class="cls-1" d="M84.27,9.17A15.76,15.76,0,0,0,80.41,14c0,.27-.06.56-.09.88a15,15,0,0,1,4-5.32C84.3,9.41,84.29,9.29,84.27,9.17Z"/><path class="cls-1" d="M85.69,13.24c.25-.22.57-.5.92-.78,0-.16,0-.29,0-.36-.33.27-.65.53-.94.79v0Z"/><path class="cls-1" d="M85.77,14.27h0c0,.14,0,.28,0,.42.29-.27.61-.55.89-.78,0-.16,0-.3,0-.42C86.39,13.73,86.07,14,85.77,14.27Z"/><path class="cls-1" d="M85.74,15.83c0,.18,0,.34,0,.5l.88-.85c0-.16,0-.33,0-.48Z"/><path class="cls-1" d="M85.52,17.58c0,.17-.06.36-.1.56.3-.33.59-.63.88-.93,0-.19.08-.36.11-.53C86.11,17,85.81,17.28,85.52,17.58Z"/><path class="cls-1" d="M85.61,4.12l.33-.21c.07-.17.15-.33.23-.48L86,3.54l-.22.14q-.15.25-.27.51Z"/><path class="cls-1" d="M85.56,11.38l-.14.11.1.33.16-.13a6.79,6.79,0,0,1,.57-.47l-.12-.32Z"/><path class="cls-1" d="M85.21,10l-.13.1c0,.12,0,.24.07.35l.13-.1c.17-.14.34-.29.53-.43v0a2.76,2.76,0,0,1-.08-.27Z"/><path class="cls-1" d="M67.48,19.64a13.93,13.93,0,0,0-.3-2.15h0l-.36-.15a13.86,13.86,0,0,1,.29,1.82C67.22,19.3,67.34,19.47,67.48,19.64Z"/><path class="cls-1" d="M11.63,52l.14-.11c.16-.14.33-.27.51-.4l0-.09-.06-.16a9.52,9.52,0,0,0-1-1A8.57,8.57,0,0,0,11.63,52Z"/><path class="cls-1" d="M18.47,40.26l.77.83,1.06.3c-.38-.47-.8-.94-1.24-1.4Z"/><path class="cls-1" d="M26.72,38.84l-.59,0a38.42,38.42,0,0,1,3.46,7.33l.86.68a36.89,36.89,0,0,0-3.59-8Z"/><path class="cls-1" d="M20.39,39.52a24.87,24.87,0,0,1,1.9,2.55l.94.38a23.35,23.35,0,0,0-2.2-3.1Z"/><path class="cls-1" d="M24.15,38.85a34.14,34.14,0,0,1,3.14,5.7l.92.59a34.51,34.51,0,0,0-3.34-6.33Z"/><path class="cls-1" d="M22.86,39l-.25,0-.17,0-.08,0a31.25,31.25,0,0,1,2.7,4.24c.34.17.65.33,1,.5A30.93,30.93,0,0,0,23,39Z"/><path class="cls-1" d="M8.69,48.82a6.7,6.7,0,0,0-.87.83,15.13,15.13,0,0,0,.62,5.8c.19-.28.38-.55.58-.81A16.19,16.19,0,0,1,8.69,48.82Z"/><path class="cls-1" d="M9.48,49.08A12.21,12.21,0,0,0,10,53.5l.64-.63a11.77,11.77,0,0,1-.36-3.34C10,49.37,9.75,49.22,9.48,49.08Z"/><path class="cls-1" d="M65.77,29.87l-.5-.59c-.38-.17-.79-.36-1.22-.54.14.16.3.34.51.56Z"/><path class="cls-1" d="M64.32,28.06c-.07-.09-.13-.19-.2-.29A1.63,1.63,0,0,0,64,27.6l-1.2-.47.32.45C63.53,27.73,63.93,27.89,64.32,28.06Z"/><path class="cls-1" d="M6.81,51.23a8.2,8.2,0,0,0-.16,5.53,11.4,11.4,0,0,0,.43,1.18c.14-.32.3-.65.48-1A16.46,16.46,0,0,1,6.81,51.23Z"/><path class="cls-1" d="M63.34,26.53c-.08-.13-.16-.28-.25-.44l-1.16-.4.24.42Q62.77,26.31,63.34,26.53Z"/><path class="cls-1" d="M69.83,33.32c0-.1,0-.2,0-.3V33c-.45-.3-1-.63-1.62-1l.81.87C69.35,33,69.6,33.17,69.83,33.32Z"/><path class="cls-1" d="M66.11,30.78c.48.4,1,.79,1.51,1.16l.42.25c-.31-.3-.62-.59-.9-.88Z"/><path class="cls-1" d="M24.72,55.08l-.67-.52q-.82.22-1.74.54l.63.49C23.56,55.39,24.15,55.22,24.72,55.08Z"/><path class="cls-1" d="M27,56.59c-.3-.18-.57-.34-.82-.51-.59.15-1.2.31-1.81.49.24.16.5.31.76.47C25.73,56.87,26.36,56.72,27,56.59Z"/><path class="cls-1" d="M62.6,25.08l0,0a3.68,3.68,0,0,1-.15-.35c-.4-.13-.82-.25-1.15-.34,0,.1.1.23.17.38Z"/><path class="cls-1" d="M37.31,61c-.08-.17-.16-.34-.23-.51L37,60.36c-.84,0-1.81.06-3,.17l1.86.53Z"/><path class="cls-1" d="M36.19,58.7a33.47,33.47,0,0,0-6.24.54c.47.16,1,.3,1.46.43a30.5,30.5,0,0,1,5.13-.28C36.43,59.16,36.32,58.94,36.19,58.7Z"/><path class="cls-1" d="M27.37,55.83l.85.54a22.61,22.61,0,0,1,6.51-.21l-.06-.1c-.14-.22-.28-.44-.43-.65A23.82,23.82,0,0,0,27.37,55.83Z"/><path class="cls-1" d="M28.73,39.08l-.5-.1A40.77,40.77,0,0,1,31.85,48l.77.74A39.57,39.57,0,0,0,29,39.13Z"/><path class="cls-1" d="M19.07,51.75l.11.15c.09.12.18.24.27.38.61-.23,1.2-.41,1.71-.56-.16-.19-.31-.39-.43-.54C20.16,51.35,19.62,51.54,19.07,51.75Z"/><path class="cls-1" d="M29.94,57.35l1,.53a24.65,24.65,0,0,1,4.73-.13l-.4-.69A26.81,26.81,0,0,0,29.94,57.35Z"/><path class="cls-1" d="M32.93,40.41a41.35,41.35,0,0,1,3.2,12.52c.18.26.38.54.57.83a42,42,0,0,0-3.07-13Z"/><path class="cls-1" d="M30.46,39.49A42.12,42.12,0,0,1,34,50.22c.28.31.53.61.77.9a41.1,41.1,0,0,0-3.5-11.4C31,39.63,30.7,39.55,30.46,39.49Z"/><path class="cls-1" d="M36.2,42.55a2.09,2.09,0,0,0-.22-.2c-.13-.11-.27-.21-.41-.31L35.45,42A41.71,41.71,0,0,1,38,55.78c.24.42.43.76.6,1.08A40.68,40.68,0,0,0,36.34,42.7Z"/><path class="cls-1" d="M26.81,58c.3.15.62.29,1,.44.77-.17,1.44-.29,2-.39-.33-.14-.67-.3-1-.47C28.15,57.66,27.49,57.81,26.81,58Z"/><path class="cls-1" d="M22.77,53.44l-.51-.5c-.48.14-1,.33-1.7.58.13.13.3.3.5.48C21.58,53.82,22.19,53.61,22.77,53.44Z"/><path class="cls-1" d="M39.6,59l.06.11c.12.26.24.52.36.8h0l.06-.17s.08-.37.17-.94a40.65,40.65,0,0,0-.82-11.43A12.69,12.69,0,0,0,38.25,45,41.35,41.35,0,0,1,39.6,59Z"/><path class="cls-1" d="M60.3,18l.21.05c0-.1-.1-.21-.16-.31v0l-.25-.06-.36-.09,0,0c0,.09.1.19.14.28A4,4,0,0,1,60.3,18Z"/><path class="cls-1" d="M66.13,18c-.08-.34-.16-.68-.27-1l-.38-.11q.09.29.18.63Z"/><path class="cls-1" d="M56.56,16.89a6.28,6.28,0,0,0-1.4,2.76l.55-.13a6.77,6.77,0,0,1,1.56-2.66A4.26,4.26,0,0,0,56.56,16.89Z"/><path class="cls-1" d="M53.74,19.55a4.13,4.13,0,0,0-.11.66l.55-.24a7,7,0,0,1,1.28-2.76A3.49,3.49,0,0,0,53.74,19.55Z"/><path class="cls-1" d="M58,19.37h.09l.41,0v0s0-.06,0-.09a7.63,7.63,0,0,0-.26-.81A3.69,3.69,0,0,0,58,19.37Z"/><path class="cls-1" d="M57.67,17.29a5.13,5.13,0,0,0-1.05,2.1c.17,0,.35,0,.53,0a4.86,4.86,0,0,1,.8-1.59C57.87,17.61,57.77,17.45,57.67,17.29Z"/><path class="cls-1" d="M69.89,31.24c0-.14,0-.28,0-.41a22,22,0,0,0-3-1.9l.38.56A21.29,21.29,0,0,1,69.89,31.24Z"/><path class="cls-1" d="M66.94,30.46a28.82,28.82,0,0,1,3,1.84c0-.12,0-.25,0-.37v0a28.73,28.73,0,0,0-3.58-2.11Z"/><path class="cls-1" d="M33.08,53.8a21.25,21.25,0,0,0-7.92.46c.22.18.46.36.7.54a20.12,20.12,0,0,1,7.81-.19C33.46,54.31,33.27,54.05,33.08,53.8Z"/><path class="cls-1" d="M64.87,28a3.81,3.81,0,0,0,.24.32l.14.19c.45.21.84.4,1.18.58L66,28.52C65.68,28.34,65.29,28.16,64.87,28Z"/><path class="cls-1" d="M73.73,21.11l0,0a13.48,13.48,0,0,1-1.45-1.79c-.12.12-.24.23-.36.36a14.5,14.5,0,0,0,1.49,1.82Z"/><path class="cls-1" d="M73.32,19l.39.48a15.91,15.91,0,0,0,3.35,2.94c0-.2,0-.4,0-.57a15.73,15.73,0,0,1-3-2.72l-.47-.58-.15-.2-.12.08a2.9,2.9,0,0,0-.29.19l.22.3Z"/><path class="cls-1" d="M71.75,21.14l0-.07q-.27-.36-.48-.69c-.08.11-.16.23-.23.35l-.07.09c.15.22.32.47.52.73C71.6,21.41,71.67,21.27,71.75,21.14Z"/><path class="cls-1" d="M71.07,22.56c-.23-.31-.43-.59-.59-.84v0c-.09.16-.17.32-.25.48.17.25.39.56.66.9Z"/><path class="cls-1" d="M68.66,21.32a17.38,17.38,0,0,0-.22-3.22l-.1-.06L68.18,18l-.1-.06h0a17.83,17.83,0,0,1,.24,2.87Z"/><path class="cls-1" d="M61.11,17.92c0,.1.1.21.14.31l0,0a13.54,13.54,0,0,1,4.91,2.45c-.19-.26-.38-.51-.58-.75A14.63,14.63,0,0,0,61.11,17.92Z"/><path class="cls-1" d="M59.49,16.53l.14,0c-.08-.12-.17-.24-.26-.35l-.2,0-.36-.07a1.47,1.47,0,0,1,.1.13l.08.12a.22.22,0,0,1,0,.08A3.26,3.26,0,0,1,59.49,16.53Z"/><path class="cls-1" d="M58.43,15.34l.12,0a4,4,0,0,0-.5-.4l-.19,0-.23,0,.42.35Z"/><path class="cls-1" d="M61.24,16l-.05,0-.11-.08a11.23,11.23,0,0,0-1.35-.66c-.25-.06-.53-.11-.85-.16.17.13.34.28.52.44A12.12,12.12,0,0,1,61.24,16Z"/><path class="cls-1" d="M63.89,26.39l.25.45c.39.16.77.33,1.14.5L65.11,27,65,26.86C64.66,26.7,64.28,26.55,63.89,26.39Z"/><path class="cls-1" d="M61.46,22.28l.19,0c0-.06,0-.17,0-.34l-.18,0-.71-.19c0,.11,0,.22,0,.33Z"/><path class="cls-1" d="M60.62,20.75l.66.17.16,0c0-.11,0-.22-.08-.34l-.11,0-.67-.17,0,.26Z"/><path class="cls-1" d="M61,19.54l.12,0c0-.11-.07-.21-.11-.33l-.29-.08-.39-.11v0c0,.1.06.2.08.3Z"/><path class="cls-1" d="M74.31,17.89h0l0,.05.08.09.42.47h0l.05,0,0,0a16.67,16.67,0,0,0,3.38,2.81c0-.18,0-.39,0-.6a16.13,16.13,0,0,1-3-2.61l-.42-.47,0,0,0,0C74.61,17.74,74.45,17.81,74.31,17.89Z"/><path class="cls-1" d="M60.17,16.37l.25.35A13.14,13.14,0,0,1,64,18.21c-.24-.24-.49-.48-.73-.69A13.67,13.67,0,0,0,60.17,16.37Z"/><path class="cls-1" d="M62.64,23.56l.12.37c.33.11.74.25,1.12.4,0-.12-.09-.24-.13-.37C63.44,23.83,63.08,23.71,62.64,23.56Z"/><path class="cls-1" d="M63.17,24.94c0,.13.11.27.18.41l1.12.45-.19-.43C63.94,25.23,63.56,25.08,63.17,24.94Z"/><path class="cls-1" d="M62.38,22.54c.4.13.78.27,1.12.41,0-.14,0-.25-.07-.36-.36-.14-.73-.27-1.1-.39v.08C62.35,22.36,62.37,22.45,62.38,22.54Z"/><path class="cls-1" d="M62.11,23.71v0c0-.11-.07-.22-.1-.34-.42-.13-.79-.24-1.19-.34l.11.36C61.29,23.46,61.67,23.57,62.11,23.71Z"/><path class="cls-1" d="M61.72,19.44c0,.09.06.19.08.28l0,0A15.22,15.22,0,0,1,67.64,23c-.16-.28-.3-.53-.45-.77A15.92,15.92,0,0,0,61.72,19.44Z"/><path class="cls-1" d="M89.58,29.17A16.91,16.91,0,0,0,90,32.05l.52-.3a19,19,0,0,1-.31-2.14A15.93,15.93,0,0,1,90.11,28l-.58,0c0,.27,0,.57,0,.85C89.57,29,89.58,29.07,89.58,29.17Z"/><path class="cls-1" d="M93.52,44.11c0,.19-.06.38-.08.57.19-.1.41-.21.61-.34,0-.22.06-.44.1-.66s0-.14,0-.21l-.62.32C93.56,43.9,93.54,44,93.52,44.11Z"/><path class="cls-1" d="M96.3,40.16A20.38,20.38,0,0,0,95.42,43a4.31,4.31,0,0,0,.81-1.69A4.15,4.15,0,0,0,96.3,40.16Z"/><path class="cls-1" d="M93.89,37.3a18.74,18.74,0,0,0-1.7,4.57l.63-.27a18.21,18.21,0,0,1,1.6-4.13l.34-.6,0,0,0,0a1.89,1.89,0,0,0-.2-.2l0,0a4.66,4.66,0,0,1-.4.25l-.25.46Z"/><path class="cls-1" d="M92,43.05c0,.17-.07.34-.1.52.17,0,.35-.12.51-.18l.08,0c0-.22.08-.43.12-.63s0-.14,0-.2l-.61.23A2.93,2.93,0,0,0,92,43.05Z"/><path class="cls-1" d="M93.42,31.25a6,6,0,0,0,.48-.52,18.09,18.09,0,0,1-.19-4.59l.06-.71v-.1c-.17-.08-.35-.14-.53-.21h0a.28.28,0,0,1,0,.09.57.57,0,0,1,0,.13l-.07.83v0A18.63,18.63,0,0,0,93.42,31.25Z"/><path class="cls-1" d="M95.82,38.36a4.86,4.86,0,0,0-.32-.6,17.84,17.84,0,0,0-1.24,2.94,17,17,0,0,0-.54,2.11l.66-.39a14.16,14.16,0,0,1,.41-1.55A18.66,18.66,0,0,1,95.82,38.36Z"/><path class="cls-1" d="M84.27,30.27c0,.11,0,.23,0,.34l0,.22c.18-.09.37-.16.55-.23,0-.24-.05-.5-.07-.76C84.61,30,84.43,30.13,84.27,30.27Z"/><path class="cls-1" d="M90.21,43.34c0,.18,0,.37-.06.56l.56-.07c0-.24.05-.46.08-.68v0l-.57.12Z"/><path class="cls-1" d="M88.68,42.21c0,.11,0,.23-.05.35h.56l.06-.43,0-.16-.57,0Z"/><path class="cls-1" d="M91.78,44.57c0,.25,0,.5,0,.77l.41-.13.16-.06c0-.3,0-.59.06-.86v0l-.57.17Z"/><path class="cls-1" d="M88.56,43.35a1.49,1.49,0,0,1,0,.21c0,.12,0,.24,0,.36l.55,0c0-.14,0-.27,0-.4s0-.14,0-.2Z"/><path class="cls-1" d="M90.41,42a3.61,3.61,0,0,0-.08.38,5.68,5.68,0,0,0,.58-.13c0-.15.07-.3.1-.45a1.17,1.17,0,0,0,0-.2c-.2.06-.4.1-.59.14Z"/><path class="cls-1" d="M91.87,32.55l.51-.36a4.3,4.3,0,0,1-.09-.47,1.7,1.7,0,0,1,0-.22c-.17.14-.35.27-.51.39,0,.09,0,.17.05.26S91.84,32.41,91.87,32.55Z"/><path class="cls-1" d="M90.13,44.71a2.18,2.18,0,0,0,0,.25c0,.2,0,.4,0,.62l.56-.06c0-.23,0-.44,0-.65a1.48,1.48,0,0,1,0-.21l-.5.05Z"/><path class="cls-1" d="M82.5,30.83c.2-.21.37-.39.54-.55a1.11,1.11,0,0,0,0-.19c0-.06,0-.13,0-.2a5.79,5.79,0,0,0-.38.58c0,.08-.09.16-.14.23s0,.08,0,.11Z"/><path class="cls-1" d="M89.09,45.59c0-.21,0-.4,0-.59v-.27l-.56,0V45a5.66,5.66,0,0,0,0,.58Z"/><path class="cls-1" d="M81.72,33.09c-.11.16-.24.35-.37.56l0,.06c.07.12.14.25.22.37l.34.14.1,0c-.13-.38-.22-.75-.31-1.11Z"/><path class="cls-1" d="M80.72,31.18c0,.29.08.61.14.94l0,0c.13-.34.27-.69.43-1a14,14,0,0,1-.09-1.75A5.15,5.15,0,0,0,80.72,31.18Z"/><path class="cls-1" d="M83.15,31.31c-.18.19-.35.37-.5.56,0,.07,0,.15,0,.23l0,.09a3,3,0,0,1,.49-.59l0-.16Z"/><path class="cls-1" d="M82.53,27.47a15.9,15.9,0,0,0-.11,1.86,4.59,4.59,0,0,1,.37-.39l.22-.23a14.92,14.92,0,0,1,.21-1.9A7.17,7.17,0,0,0,82.53,27.47Z"/><path class="cls-1" d="M84.21,28.6c0,.19,0,.38,0,.57v.12c.19-.14.38-.28.59-.41v-.2c0-.18,0-.37,0-.55l-.07,0C84.57,28.31,84.38,28.45,84.21,28.6Z"/><path class="cls-1" d="M84.59,35.89l-.15,0-.57-.12a.36.36,0,0,1,0,.09L84,36a7.77,7.77,0,0,0,.8.31,2.56,2.56,0,0,1-.11-.24A2,2,0,0,0,84.59,35.89Z"/><path class="cls-1" d="M86.65,30.31a13.71,13.71,0,0,1-.09-1.47c-.18.08-.38.17-.58.28,0,.38,0,.8.08,1.23A5.85,5.85,0,0,1,86.65,30.31Z"/><path class="cls-1" d="M88.39,27.33c0-.33,0-.67.08-1l-.23.05-.37.08c0,.31-.06.66-.07,1v.05l.59-.14Z"/><path class="cls-1" d="M90.05,27.18h.08a16.73,16.73,0,0,1,.37-2.63h-.59a17.16,17.16,0,0,0-.36,2.68Z"/><path class="cls-1" d="M90.31,33.4c.18-.08.36-.15.53-.24h0c0-.15-.08-.3-.12-.43a.85.85,0,0,0,0-.17c-.17.1-.35.19-.52.27a1.6,1.6,0,0,0,0,.21Z"/><path class="cls-1" d="M86.6,27.77c0-.25,0-.51.05-.75l-.21.09a2.4,2.4,0,0,0-.4.17c0,.26,0,.55,0,.83v.1c.2-.09.4-.19.6-.27Z"/><path class="cls-1" d="M88.35,28.59c0-.12,0-.24,0-.36l-.58.15v.18a1,1,0,0,1,0,.17,14.72,14.72,0,0,0,.11,1.72,4.84,4.84,0,0,1,.6.22,15.08,15.08,0,0,1-.13-1.86Z"/><path class="cls-1" d="M91.56,31c.18-.14.35-.29.51-.44A17.29,17.29,0,0,1,92,25.93l.12-.85a2.5,2.5,0,0,1,.05-.29l-.17,0-.4-.1c0,.14,0,.3-.07.45l0,.1-.09.7A18.36,18.36,0,0,0,91.56,31Z"/><path class="cls-1" d="M95.39,27a1.34,1.34,0,0,0,0-.2c0-.15,0-.3,0-.44a6.69,6.69,0,0,0-.56-.44c0,.39,0,.83,0,1.29A1.61,1.61,0,0,1,95.39,27Z"/><path class="cls-1" d="M87.6,64l.91.11a30.5,30.5,0,0,0-2.84-3.53,23.57,23.57,0,0,0-2.15-1.19A32.44,32.44,0,0,1,87.6,64Z"/><path class="cls-1" d="M74.87,62.55c.51.2.93.39,1.23.52a28.31,28.31,0,0,0-5.66-5.81l-.78.1-.21,0A28.2,28.2,0,0,1,74.87,62.55Z"/><path class="cls-1" d="M85,63.63l.94.14a32.26,32.26,0,0,0-4.78-5.36c-.52-.18-1.06-.34-1.62-.49A34.34,34.34,0,0,1,85,63.63Z"/><path class="cls-1" d="M79,65.28a14.79,14.79,0,0,0,1.42,1.31c-1.9-4.42-5.69-7.81-7.8-9.45l-1.09,0A27.13,27.13,0,0,1,79,65.28Z"/><path class="cls-1" d="M82.3,63.14c.3.07.63.14,1,.2a32.25,32.25,0,0,0-5.48-5.8c-.44-.08-.9-.15-1.37-.21A33.17,33.17,0,0,1,82.3,63.14Z"/><path class="cls-1" d="M79.05,62c.48.22,1,.4,1.3.53A31.69,31.69,0,0,0,75,57.2l-1.21-.06A33.24,33.24,0,0,1,79.05,62Z"/><path class="cls-1" d="M88.26,65c.32.48.6,1,.86,1.44l.81.09c-.26-.51-.53-1-.8-1.44Z"/><path class="cls-1" d="M86,68.92h-.68c.09.34.17.62.23.9l.7,0c0-.2-.1-.4-.16-.6Z"/><path class="cls-1" d="M89.7,67.34l-.14,0a15,15,0,0,1,.89,2.35h.23l.35,0,.16,0a14.75,14.75,0,0,0-.81-2.33C90.17,67.39,89.93,67.37,89.7,67.34Z"/><path class="cls-1" d="M87.46,66.3c-.25-.49-.53-1-.83-1.49l-.89-.07a16.93,16.93,0,0,1,.87,1.46Z"/><path class="cls-1" d="M85.84,68.21c-.16-.46-.35-.93-.58-1.46l-.82-.18a13.91,13.91,0,0,1,.67,1.63Z"/><path class="cls-1" d="M93.13,70.12l.65.14a14.09,14.09,0,0,0-.5-1.6,6.71,6.71,0,0,0-1-.55,14.16,14.16,0,0,1,.7,2Z"/><path class="cls-1" d="M87.55,67.09,87,67a14.1,14.1,0,0,1,1,2.64l.68,0h0a15.13,15.13,0,0,0-.89-2.52Z"/><path class="cls-1" d="M64.55,60.18c-.52-.55-1-1-1.44-1.39l-.3.09-.48.15c.23.18.45.39.72.63C63.51,59.84,64,60,64.55,60.18Z"/><path class="cls-1" d="M84.26,43.54c-.2-.1-.4-.2-.59-.31v.1c0,.18,0,.36,0,.54l.1.07c.17.11.33.23.51.33,0-.2,0-.4,0-.59Z"/><path class="cls-1" d="M84.22,42.64v-.1a.49.49,0,0,0,0-.12L84,42.33l-.24-.13-.12-.06a.17.17,0,0,1,0,.07.62.62,0,0,1,0,.13l.45.24Z"/><path class="cls-1" d="M85.83,43.37v-.18c0-.08,0-.15,0-.23h0l-.55-.16v.11a1.93,1.93,0,0,0,0,.24h0l.1,0Z"/><path class="cls-1" d="M87.44,43.78c0-.11,0-.22,0-.33a1,1,0,0,0,0-.17l-.55-.09a.66.66,0,0,0,0,.14v0a3,3,0,0,0,0,.31l.52.1Z"/><path class="cls-1" d="M87.48,44.57h-.07l-.5-.08v.19c0,.2,0,.41,0,.62l.1,0,.14,0a.71.71,0,0,0,.21,0l.12,0c0-.21,0-.41,0-.61A1.77,1.77,0,0,1,87.48,44.57Z"/><path class="cls-1" d="M82.46,38.25a14.25,14.25,0,0,0-.36,2.3l0,.23,0,.35,0,0c.17.15.34.3.52.44v0A14.22,14.22,0,0,1,83.1,38C82.87,38.05,82.66,38.15,82.46,38.25Z"/><path class="cls-1" d="M85.88,44.2,85.36,44l-.06,0s0,.11,0,.17,0,.4,0,.6l.58.23c0-.2,0-.4,0-.58S85.88,44.27,85.88,44.2Z"/><path class="cls-1" d="M82.73,37.27l.1,0,0,0h0l-.1-.05h0l0,.1Z"/><path class="cls-1" d="M82.61,42.78v-.23l-.1-.07c-.16-.11-.32-.22-.47-.34v.09a.81.81,0,0,0,0,.22,6.25,6.25,0,0,0,.58.57C82.62,42.94,82.61,42.86,82.61,42.78Z"/><path class="cls-1" d="M87.49,42.5a15.3,15.3,0,0,1,.9-4.06l-.43,0H87.8a15.26,15.26,0,0,0-.86,4Z"/><path class="cls-1" d="M69.17,61.3l1.11.2a26.28,26.28,0,0,0-3.7-3.63l-.7.17-.18,0A25.33,25.33,0,0,1,69.17,61.3Z"/><path class="cls-1" d="M67.54,61a24.43,24.43,0,0,0-2.73-2.66l-.82.22a24.18,24.18,0,0,1,2.37,2.16Z"/><path class="cls-1" d="M40,88.85l.2-.1c-.15-.15-.28-.29-.4-.43l-.22.11a2.59,2.59,0,0,0-.33.17c.11.15.24.31.36.45Z"/><path class="cls-1" d="M71.9,61.76A9,9,0,0,1,73,62a27,27,0,0,0-4.52-4.43c-.22,0-.44.08-.66.12l-.26,0A27.3,27.3,0,0,1,71.9,61.76Z"/><path class="cls-1" d="M42.24,38.76h0l-.38-1.1-.27.52.52.78A1.37,1.37,0,0,1,42.24,38.76Z"/><path class="cls-1" d="M51.58,46.92c-.08-.27-.15-.51-.24-.75a43.46,43.46,0,0,1-2.8,4.22c0,.29,0,.57.05.87A43.63,43.63,0,0,0,51.58,46.92Z"/><path class="cls-1" d="M47.09,42.39v0c.34-.5.73-1.09,1.12-1.73a4.33,4.33,0,0,0-.38-.62c-.3.5-.62,1-1,1.59C46.94,41.9,47,42.15,47.09,42.39Z"/><path class="cls-1" d="M51.86,48.14a39.55,39.55,0,0,1-3.24,4.68c0,.31,0,.6,0,.86A38.71,38.71,0,0,0,52,49.06C51.94,48.75,51.91,48.45,51.86,48.14Z"/><path class="cls-1" d="M45.64,38.69a1.27,1.27,0,0,0,.13-.19l.21-.31-.12-.1c-.13-.11-.26-.22-.4-.32l-.08.11-.07.11c.09.18.18.37.26.55Z"/><path class="cls-1" d="M48.31,48l0,.2c0,.21.06.44.08.65.89-1.2,1.73-2.45,2.5-3.73a6.08,6.08,0,0,0-.34-.6C49.88,45.74,49.14,46.88,48.31,48Z"/><path class="cls-1" d="M47.66,44.47c.39-.56.9-1.31,1.43-2.17-.11-.18-.22-.39-.35-.66-.45.76-.9,1.44-1.28,2,.07.23.12.46.17.69Z"/><path class="cls-1" d="M48,45.8c.06.29.11.57.15.83.71-1,1.33-1.94,1.91-2.89l-.38-.56C49.11,44.06,48.56,44.92,48,45.8Z"/><path class="cls-1" d="M48.57,55.29v.17l.28.33a25.39,25.39,0,0,0,2-2.47,9.71,9.71,0,0,0,.91-2.3A32.27,32.27,0,0,1,48.57,55.29Z"/><path class="cls-1" d="M109.24,28.26a2.26,2.26,0,0,0-.16-.26l-.16-.05h-.1l.46.39Z"/><path class="cls-1" d="M106.77,26.38l.77.52h0l.8.12c-.09-.13-.19-.28-.33-.46C107.62,26.49,107.22,26.44,106.77,26.38Z"/><path class="cls-1" d="M104.75,23l-.48-.38a42.72,42.72,0,0,0-6,.77c.41,0,.81.1,1.24.17A50.58,50.58,0,0,1,104.75,23Z"/><path class="cls-1" d="M106,24.12c-.12-.12-.25-.26-.42-.41-1.52,0-3,.09-4.29.23.38.1.73.21,1,.31C103.51,24.16,104.71,24.12,106,24.12Z"/><path class="cls-1" d="M84.58,11c0-.12,0-.23-.08-.34a16.07,16.07,0,0,0-4.25,5.56c0,.26,0,.53,0,.76A15.19,15.19,0,0,1,84.58,11Z"/><path class="cls-1" d="M101.66,19.51c-4-1.64-8.36-1.32-13.08.95a18.7,18.7,0,0,0-1.78,1l0-.05a10.14,10.14,0,0,0,1.67-7.84c-.09-.34-.19-.67-.3-1s-.3-.87-.46-1.29l0-.08a.36.36,0,0,1,0-.09.25.25,0,0,1,0-.07l0-.07v0c-.2-.52-.38-1-.54-1.51v0l0,0c3.83-2.58,6.88-1.05,7-1l.46.23.1-.5A9.65,9.65,0,0,0,94.75,7V6.76a7.52,7.52,0,0,0-.07-1.37.15.15,0,0,1,0-.07s0,0,0-.06A6,6,0,0,0,94.26,4l0-.05a1.42,1.42,0,0,0-.08-.18,5.41,5.41,0,0,0-.68-1,.94.94,0,0,1-.1-.1l-.06-.06a4.57,4.57,0,0,0-1-.85,4.76,4.76,0,0,0-.75-.38l0,0-.05,0A5.31,5.31,0,0,0,90.6,1h-.17A7.19,7.19,0,0,0,84.8,2.55a11.74,11.74,0,0,0-1.23,1.12A15.06,15.06,0,0,0,82.46,5s-.08.13-.12.21h0l-.06.1-.06.1,0,0c-.07.11-.15.23-.22.36l0,0L81.87,6l0,0h0C80.4,6.29,78.58,7.63,77,9.6a17.18,17.18,0,0,0-3.48,7.16v0h0a9.74,9.74,0,0,0-2.27,1.68l0,0,0,0a18.05,18.05,0,0,0-3.45-2,8.66,8.66,0,0,0-5.07-.9h0l-.17-.11-.27-.19-.2-.14h0L61.83,15l-.15-.11c-.4-.23-.81-.43-1.36-.68l-.11,0-.1-.05L59.73,14l-.25-.08-.23-.08a6.67,6.67,0,0,0-.72-.23,7.15,7.15,0,0,0-5.86.91h0l0,0a5.46,5.46,0,0,0-1.23,1.26l0,0v0h0a5.12,5.12,0,0,0-.39.7l-.06.15a.2.2,0,0,1,0,.08c-.08.21-.13.37-.18.52a2,2,0,0,0,0,.24v0q-.06.27-.09.51c0,.11,0,.21,0,.3s0,.33,0,.52V19a1.41,1.41,0,0,0,0,.2c0,.18,0,.38.09.61,0,0,0,.06,0,.1s0,.08,0,.12a6.71,6.71,0,0,0,.26.83.2.2,0,0,0,0,.08L51,21a5.75,5.75,0,0,0,.31.66,9.1,9.1,0,0,0,.6,1l.29.41.32-.39a7.15,7.15,0,0,1,6.34-2l.2,0,.28,0h0v0c.07.6.1,1.23.13,1.78,0,.77.1,1.4.18,2a1.36,1.36,0,0,1,0,.2c0,.12,0,.24.05.36a10.48,10.48,0,0,0,5.94,7.16,10.78,10.78,0,0,1,1.87,1.14l.18.13.33.24a8.06,8.06,0,0,1,1.36,1.4,1.27,1.27,0,0,1,.2.38.25.25,0,0,1,0,.12s0,0,0,.07h0a13.36,13.36,0,0,0-.21,1.58h0v0l0,.19A8.14,8.14,0,0,1,68.83,39l-.06.1s0,0,0,.08a8.05,8.05,0,0,1-.65,1.08l-.29.38c-2.3,2.52-4.27,4.77-6,6.91-5,6.08-9,11.13-12.15,15l-1.49,2-.08,0a17.53,17.53,0,0,0,.34-4.26s-.15-1,1.61-2.94c2.14-2.44,4.22-5.49,3.39-9.7A10.61,10.61,0,0,0,51.55,43c-.21-.32-.42-.64-.64-1a12.09,12.09,0,0,1-.75-1.53c-.82-1.92-2.79-3.41-4.7-4.86a17,17,0,0,1-3.53-3.2L41.62,32l-.31.44c-.14.18-3.24,4.44-4,8.59h0c.23.2.46.41.68.63.46-3.4,2.88-7.21,3.62-8.3l0,0,0,0A19.82,19.82,0,0,0,45,36.2h0c1.82,1.39,3.71,2.82,4.44,4.54a14.63,14.63,0,0,0,1.44,2.65v0a9.84,9.84,0,0,1,1.71,4.33c.77,3.87-1.09,6.63-3.21,9s-1.8,3.53-1.79,3.55a18.82,18.82,0,0,1-.79,5.86h0l-.64.81-.53.66-.07,0a14.66,14.66,0,0,0,1.3-6.59c0-.2,0-.36,0-.51,0-1.08-.07-1.2-1.52-2.58l0,0c-.5-.49-1.19-1.15-2.11-2.07L42.43,55v0h0c0-.07,0-.14,0-.2s0-.34,0-.52a25.5,25.5,0,0,0-.2-3.15h.08v.06l.07.08.29.28c-.1-.34-.22-.71-.36-1.15l-.15-.15,0,.09s0,.07,0,.11v.05h-.08s0,0,0-.06c-.09-.54-.18-1-.29-1.48l0-.14L42,49l.28.28c-.06-.33-.1-.64-.13-.94-.19-.19-.4-.41-.67-.71h0a14.11,14.11,0,0,0-.57-1.49h0l0,0h0l0,.08,0,.09c.33.36.66.71,1,1a7.08,7.08,0,0,1,0-.88A26.44,26.44,0,0,1,40,44v.27l-.08-.12c-.19-.31-.42-.63-.69-1h0l-.08-.1L39,43l-.1-.14.06-.05.13.16v-.11L39,42.6c-.13-.19-.27-.39-.41-.61v.09c0,.05,0,.1,0,.15v0l0,0-.06,0c-.16-.19-.33-.36-.5-.53v0l-.18-.19-.63-.6h0L37.14,41A18.73,18.73,0,0,0,22.9,37.17l-.25,0-.32,0a15.59,15.59,0,0,0-6.06,2.17l0,0,0,0a7.72,7.72,0,0,0-2.15,2v0H12.31a13.93,13.93,0,0,0-4.82,1.31,11.75,11.75,0,0,0-6.15,7.47h0a.64.64,0,0,0-.06.11h0v0a12.39,12.39,0,0,0-.37,2.69,1.27,1.27,0,0,1,0,.2,2.35,2.35,0,0,0,0,.26,11.07,11.07,0,0,0,.24,2.18A10.25,10.25,0,0,0,7,63.21l.52.24,0-.56a14.16,14.16,0,0,1,6.63-10.5l.05,0,.06,0h0l0,0c.61.88,1.18,1.82,1.73,2.73l.25.41.22.35c.34.57.72,1.16,1.17,1.82l.18.26c.18.28.37.56.57.82a11.77,11.77,0,0,0,2.15,2.14,12.68,12.68,0,0,0,3.14,1.8l0,0,0,0a5.16,5.16,0,0,0-.44.77c-1.3,2.86,0,6.56,3.1,9l.06,0-.07,0A9.07,9.07,0,0,0,22,76.47a6,6,0,0,0-.49,4.67c.89,2.76,3.92,4.62,7.52,4.62A10.94,10.94,0,0,0,32,85.35l.12,0-.07.1c-13,17.67-19.33,29-19.33,34.78A2.54,2.54,0,0,0,15.43,123h0a2.1,2.1,0,0,0,.66.11,1.48,1.48,0,0,0,.88-.27c.63-.43.92-1.33.85-2.69-.14-3.09,3.6-12.48,10.8-23.79,1.31-2,3.39-5.06,6.18-8.92l0-.06,0,.07a10.72,10.72,0,0,0,.63,1.43A11.36,11.36,0,0,0,45.05,95a7.18,7.18,0,0,0,2.46-.41,6.24,6.24,0,0,0,3.81-3.69A8.69,8.69,0,0,0,51,84.35l0,0H51A12,12,0,0,0,52.58,84h0v0a12,12,0,0,0,8.47,8.26,37.84,37.84,0,0,0,3.95.66h.07c1,.12,1.91.24,2.82.42h0v0a12.9,12.9,0,0,1-6.34,9.48l-.51.26.43.37a9.88,9.88,0,0,0,2.31,1.49h0l0,0a10.32,10.32,0,0,0,1.23.47h0a9.41,9.41,0,0,0,2.71.43,10,10,0,0,0,4-.85,10.78,10.78,0,0,0,2.5-1.5l0,0,0,0,.06-.08h0a10.76,10.76,0,0,0,4-7.93,12.79,12.79,0,0,0-.69-4.52,4.13,4.13,0,0,0-.19-.44l0,0c-.12-.25-.33-.71-.41-.94v0h0c1.22-1.94,1.41-5.13.52-8.52a17.14,17.14,0,0,0-8.61-11c-3.44-1.7-7.45-1.71-11.91,0h0a9.94,9.94,0,0,0-4.85-1.37h-.38a11.88,11.88,0,0,0-3.39.49l-.12,0,.07-.1c1.57-2.07,3.12-4.1,4.62-6l.18-.16c1.5-1.34,3.74-3.06,5.79-2.61a6.59,6.59,0,0,1,3.09,2.24c.32.34.69.72,1.1,1.09a13.35,13.35,0,0,0,8,2c1.49-.1,2.7.83,4.11,1.93a15.31,15.31,0,0,0,12.55,3.7,9.89,9.89,0,0,1,2.55,0c3.29.44,5.72,1.24,6.65,2.2l.67.69v-1c0-.51-.15-12.49-7.85-19.28a17,17,0,0,0-6.24-3.47h0v0A9.46,9.46,0,0,0,82.19,46c-2.17-3.4-6-4.94-8.82-3.6h0l0,0A5.34,5.34,0,0,0,72,41.12l-.08,0L72,41a21,21,0,0,1,7.27-.74h0v0c.78,3,3.82,5.63,7.59,6.46a12,12,0,0,0,1.86.24H89c.15,0,.29,0,.44,0,.35,0,.7,0,1-.07h.14a10,10,0,0,0,3.24-.89l0,0v0a8.88,8.88,0,0,0,1.27-.76l.11-.09.06,0a6.62,6.62,0,0,0,.91-.84l.06-.06.1-.12a5.47,5.47,0,0,0,.73-1.07l0,0s0,0,0,0a5.47,5.47,0,0,0,.51-1.36,6.64,6.64,0,0,0-1.81-5.88l0,0h0l-.12-.15,0,0a10.67,10.67,0,0,0,.85-.81l.07-.07.08-.07.13-.16a.76.76,0,0,1,.08-.11l0,0h0a12.11,12.11,0,0,0,7.63-1.22,7.87,7.87,0,0,1,1.89-.65C109,32,111,31.94,112,32.41l.85.43-.31-.9C112.37,31.56,109.15,22.61,101.66,19.51ZM90.48,1.78h0a4.64,4.64,0,0,1,1.4.57,4.91,4.91,0,0,1,2,5.11v0h0a8.12,8.12,0,0,0-7.06,1.09l0,0,0-.06a7.41,7.41,0,0,1,0-3.31s0,0,0-.07a.14.14,0,0,0,0-.06h0a4.46,4.46,0,0,1,3.13-.85A4.38,4.38,0,0,1,92.8,6.51l.66-.4A5.08,5.08,0,0,0,90,3.49a4.58,4.58,0,0,0-2.68.39l-.12.06.07-.12A4.36,4.36,0,0,1,90.48,1.78ZM82.37,6.61h0a8,8,0,0,0,.55-.86c.09-.16.14-.23.16-.26a11,11,0,0,1,2.18-2.32,7.36,7.36,0,0,1,2.8-1.36l0,.08A5,5,0,0,0,86,5.09c-.56,2.46.18,4.41.9,6.3h0a20.91,20.91,0,0,1,.79,2.35,7.7,7.7,0,0,1,0,3.32c0,.25,0,.44,0,.44h0l-.14.37a10.74,10.74,0,0,1-.81,2l-.15.38-.13.13A10.75,10.75,0,0,1,85.33,22a11.64,11.64,0,0,0-1.67,2.53l0,.08.14-.08h0l0,.07h0l-.15.09-.11.07-.12.07h0c-.29.18-.58.38-.88.61l-.11.08-.13.1-.06.05h0l0,0a4.92,4.92,0,0,0-.39.35h0c-.19.18-.38.37-.57.58l-.06-.06.46-.48,0,0v0l.09,0,.38-.35-.1-.19L82,25.27h0v0a9.36,9.36,0,0,0,.37-1.4h0A26.61,26.61,0,0,1,84,21.4c.1-.27.2-.55.29-.86a28.22,28.22,0,0,0-1.72,2.33l-.09.13,0-.16a7.09,7.09,0,0,0,0-.8v-.19h0c.24-.35.52-.75.86-1.22,0-.24.08-.46.11-.66-.34.43-.65.86-.93,1.26l-.06.09V21.2c0-.19-.07-.39-.11-.57a1.36,1.36,0,0,1,0-.17v0h0c.39-.6.84-1.22,1.33-1.83l0-.15c0-.15,0-.3,0-.44a21.06,21.06,0,0,0-1.44,1.89l0,.07,0-.08a2.15,2.15,0,0,0-.15-.38l-.09-.2v0a19.47,19.47,0,0,1,1.83-2.5v-.22c0-.1,0-.2,0-.29a20.24,20.24,0,0,0-2,2.59l0,.06,0-.06c-.09-.18-.18-.33-.27-.48l0,0,0,0a17.54,17.54,0,0,1,2.29-3.19q0-.23,0-.42A18.42,18.42,0,0,0,81.3,18l0,.05,0-.05-.09-.13-.2-.25v0a15.18,15.18,0,0,1,2.67-4l-.07-.37a15.83,15.83,0,0,0-2.81,4.09l0,.05,0,0a1.76,1.76,0,0,0-.3-.24L80.25,17l0,0h0l0,0-.15-.13a1.37,1.37,0,0,0-.24-.18l0,0v0A21.16,21.16,0,0,1,82.37,6.61Zm-8,9.67c1.08-4.3,4.36-8.14,6.77-9.23l.1,0,0,.11A22.83,22.83,0,0,0,79,16.26v.06l-.06,0a4.6,4.6,0,0,0-.77-.25h0a18.68,18.68,0,0,1-1.78-3.51c-.07.12-.13.24-.19.36l0,0a18.2,18.2,0,0,0,1.44,2.94l0,.07h-.08a6.46,6.46,0,0,0-.65,0H76.8v0a22.87,22.87,0,0,1-1.07-2.08l-.12.29a.77.77,0,0,1-.07.16c.24.52.5,1,.83,1.61l0,.06h-.06a5.93,5.93,0,0,0-.72.1h0v0l-.13-.23c-.1-.16-.19-.33-.29-.51l-.16.49.11.18.09.16,0,0,0,0-.23.05a4.34,4.34,0,0,0-.48.14l-.07,0Zm.28.78a6.29,6.29,0,0,1,2.2-.42,4.65,4.65,0,0,1,2.5.69,5.2,5.2,0,0,1,2.32,4.08,9.63,9.63,0,0,1-5.84,9.45,6.29,6.29,0,0,1-2.2.42,4.7,4.7,0,0,1-2.5-.69c-2.76-1.71-3.16-6.07-.9-9.73A9.16,9.16,0,0,1,74.69,17.06Zm.56,14.8v0h0l.13,0c.24-.07.49-.13.74-.22a3.54,3.54,0,0,0,.48-.23l.23-.12h0v0l0,0v0h0l-1.07,1.05c-.16.15-.32.3-.47.46h0l-3.52,3.43.06-.31c0-.19.07-.39.12-.57v0l0,0A13.54,13.54,0,0,1,73.11,32v0h.15a4.83,4.83,0,0,0,.6,0l.32,0h.07A5.64,5.64,0,0,0,75.25,31.86Zm-2.6,4.73.1-.09c.14-.13.27-.27.4-.41l.5-.52h0a55.38,55.38,0,0,1,4.65-4.1l.86-.63.08-.06v.09a6.06,6.06,0,0,0,0,1.27c.06.45.14.76.14.77v0h0l-3.66,1.9c-1.15.65-2.22,1.3-3.17,1.93l0-.07Zm-9-20.38a13.56,13.56,0,0,1,7,2.81l0,0,0,0-.1.13-.08.12,0,0-.09-.07,0,0v.31l-.1.12c-.17.23-.34.45-.5.7l-.07.11v-.22c0-.48,0-1-.08-1.53l-.38-.24a18.54,18.54,0,0,1,.08,2.72h0a8.9,8.9,0,0,0-.5,1.08l0,.08,0-.07a22.83,22.83,0,0,0-5-6l-.08-.08Zm-4.53,3.7a8.1,8.1,0,0,0-6.88,1.88l0,0,0,0a4.89,4.89,0,0,1-.23-5.5,4.52,4.52,0,0,1,1-1.1h0a4.4,4.4,0,0,1,3.73.58l.1.07h-.13a4.77,4.77,0,0,0-2.61.73,5.12,5.12,0,0,0-2,3.78l.77.1a4.33,4.33,0,0,1,1.7-3.23,4.56,4.56,0,0,1,3.21-.51h0a.08.08,0,0,0,0,0l0,.06a7.34,7.34,0,0,1,1.32,3v.06Zm9.39,13.28A11.47,11.47,0,0,0,66,31.56a11.18,11.18,0,0,1-1.65-1l-.19-.07-.28-.28a10.72,10.72,0,0,1-1.56-1.52L62,28.41,61.8,28a7.93,7.93,0,0,1-1.33-3,20.43,20.43,0,0,1-.23-2.47c-.12-2-.24-4.1-1.75-6.13a5,5,0,0,0-3.24-2.06v-.09a7.3,7.3,0,0,1,3.11.11,11.07,11.07,0,0,1,2.93,1.22.49.49,0,0,1,.12.08l.14.09a5.53,5.53,0,0,0,.85.56,21.19,21.19,0,0,1,6,7.09h0v0c0,.17-.07.35-.1.52l0,.16v.07l-.06,0a16.24,16.24,0,0,0-6.07-3.29,3.4,3.4,0,0,0,.07.34,15.62,15.62,0,0,1,6,3.34h0v0c0,.08,0,.16,0,.24s-.05.28-.06.42v.08L68,25.2a16.45,16.45,0,0,0-4-2.35q0,.15.09.36a15.58,15.58,0,0,1,3.92,2.43h0v0c0,.21,0,.39,0,.57v.09L68,26.27a18.58,18.58,0,0,0-3.56-2l.14.39a17.93,17.93,0,0,1,3.49,2.05h0v0a3,3,0,0,0,.09.45c0,.07,0,.14,0,.21l0,.1-.08-.06A20,20,0,0,0,65,25.69c0,.08.09.17.13.26a1.86,1.86,0,0,1,.1.2A19.93,19.93,0,0,1,68.35,28h0a7.52,7.52,0,0,0,.29.71l.11.25-.12-.08a23.88,23.88,0,0,0-2.81-1.62c.07.14.16.28.24.42l.06.1a21.4,21.4,0,0,1,3,1.86h0a5.27,5.27,0,0,0,1.23,1.31h0v0a17.8,17.8,0,0,1,0,1.79h0c-.17.49-.35,1.08-.5,1.69l0,.08-.06-.06A9.79,9.79,0,0,0,68.53,33.19ZM41.68,60.6c0-.12.07-.24.11-.38a5,5,0,0,0,.12-.54c0-.14.06-.29.09-.47s.09-.52.14-.85c.1-.68.17-1.42.23-2.2v-.09l.07.07.1.11.13.14L44.3,58l.53.51c1,1,1.26,1.21,1.29,1.64v.38c0,.15,0,.31,0,.55a15.42,15.42,0,0,1-2.41,8.6l-.29.47v0l-.08,0v0a22.74,22.74,0,0,0-1.9-6.35l-.07-.14a.81.81,0,0,1,0-.16,3.1,3.1,0,0,1-.06-.66,8.3,8.3,0,0,1,.39-2.14ZM13.85,51.7a15,15,0,0,0-7,10.51v.06l-.05,0A9.7,9.7,0,0,1,1.68,53.6a11.17,11.17,0,0,1,.38-3v0c.54-.9,2.58-3.8,6-3.12l.09,0-.08.06c-1.75,1.21-5.5,4.81-2.58,12.09a.37.37,0,0,0,.35.24l.15,0a.4.4,0,0,0,.21-.51c-3.16-7.91,1.87-11,2.91-11.55h0l.09,0,.13,0a11.15,11.15,0,0,1,4.48,3.77l0,0Zm5.25,6.57a39,39,0,0,1-2.35-3.6c-1.78-3-3.62-6-7.06-7.51l-.19-.07L9.35,47a.38.38,0,0,0-.15,0,5.85,5.85,0,0,0-6.1,1.19l-.06,0a10.74,10.74,0,0,1,4.79-4.62,13.26,13.26,0,0,1,4.54-1.23h.45a7.13,7.13,0,0,0,1.53,0h0A24.7,24.7,0,0,1,24,44.9a27.84,27.84,0,0,1,7.61,5.56,34.11,34.11,0,0,1,6.79,10.42.39.39,0,0,0,.36.23.4.4,0,0,0,.15,0,.43.43,0,0,0,.21-.21.44.44,0,0,0,0-.3c-7-16.34-20.13-18.71-24-19H15l.06-.06c1.42-1.66,4.18-3,7.38-3.46a18,18,0,0,1,14.2,3.56c7.17,6,4.52,18,4.41,18.45-.94,2.77-.47,3.9-.41,4a21.82,21.82,0,0,1,2.05,7.69v.06l-.05,0c-.29-.06-.58-.11-.86-.14h0v0a18.89,18.89,0,0,0-.65-3.87L41,67.4a9,9,0,0,0-1.57-3.57,5.57,5.57,0,0,0-3-1.2h0a10.21,10.21,0,0,0-1.33-1c-.17-.11-.36-.23-.58-.35l-.05,0,0,0-.12-.06h.11l-.16,0h0l-.1-.06-.1-.06a10.57,10.57,0,0,0-3.19-1A9.37,9.37,0,0,0,29.67,60h0l-1.22-.42c-.64.13-1.31.29-2,.47l.67.21.14.05-.12,0-.14,0-.14,0a6.29,6.29,0,0,0-2.26,1.39l-.16.18-.09.1,0,0h0A11.76,11.76,0,0,1,19.1,58.27Zm18.48,5.5-.09-.11.13,0,.15.06.1,0a2.93,2.93,0,0,1,1,.56h0v0A6.26,6.26,0,0,1,40,66.69l0,0v0a.74.74,0,0,1,0,.14l0,.1.17.59.09.32c0,.17.09.34.13.51a2,2,0,0,0,0,.24A18.52,18.52,0,0,1,41,71.53v0h-.09a7.81,7.81,0,0,0-2.18.3l-.1,0,.06-.1.09-.14a2.82,2.82,0,0,0,.27-.48C40.08,68.94,39.51,66.1,37.58,63.77ZM24,63.82A5.18,5.18,0,0,1,27.1,61.1a7.52,7.52,0,0,1,2.49-.42,9.46,9.46,0,0,1,4.15,1c4,1.94,6,6,4.62,9.17a4.79,4.79,0,0,1-1.2,1.63,8.11,8.11,0,0,0-1,.71,5.82,5.82,0,0,1-.81.38,7.36,7.36,0,0,1-2.49.42,9.42,9.42,0,0,1-4.15-1C24.7,71.05,22.63,66.94,24,63.82ZM34.57,86.5c-3,4.13-5.2,7.32-6.58,9.48-7.37,11.56-11.07,21-10.92,24.24.05,1-.13,1.75-.51,2a.8.8,0,0,1-.46.14,1.34,1.34,0,0,1-.43-.08l-.17,0h0c-1.42,0-2.05-.63-2.05-2.06,0-5.55,6.72-17.45,20-35.36v0c.28-.12.54-.25.79-.38l.06,0v.06a8.89,8.89,0,0,0,.3,2v0Zm.08-3.26a9.66,9.66,0,0,1-2.81,1.34A10,10,0,0,1,29,85c-3.18,0-5.95-1.56-6.77-4.09a5.17,5.17,0,0,1,.44-4.06,8.42,8.42,0,0,1,4.58-3.76h0c.21.13.43.27.67.4h0v0c0,.2,0,.4,0,.59v.13l.48-.11h0V74a1,1,0,0,1,0-.17v-.07l.07,0a10.5,10.5,0,0,0,2.48.78h0v0c0,.2.08.4.12.59l.54.07c-.05-.2-.09-.37-.12-.54v0h.05a8.07,8.07,0,0,0,1,.06h0v0c0,.17.1.34.14.5s0,.16.08.25l.58.18-.06-.17c-.06-.19-.12-.39-.17-.59l-.44-.13v-.08a8.2,8.2,0,0,0,1.59-.17h0l.15.07,0,0,0,0a6.72,6.72,0,0,0-.64,1,3.9,3.9,0,0,0-.21.57l-.08.23v0l0,0-.49-.18c.09.28.19.54.29.8l0,0h0a7.12,7.12,0,0,0-.15,2.11l-.08,0a18.37,18.37,0,0,1-.85-1.89l-.58-.14A17.34,17.34,0,0,0,33.65,81h0c0,.07,0,.13.05.19a2.86,2.86,0,0,0,.07.28h0v.06l0,.06a8.13,8.13,0,0,0,.84,1.58l0,0Zm-.11-1.93a6.58,6.58,0,0,1,.2-5.24,6.76,6.76,0,0,1,6.18-3.76,7.37,7.37,0,0,1,3.25.75,7,7,0,0,1,3.52,9.26,6.59,6.59,0,0,1-4,3.41,7.23,7.23,0,0,1-2.2.35,7.43,7.43,0,0,1-3.25-.75A7.32,7.32,0,0,1,34.54,81.31Zm16.05,9.31a5.42,5.42,0,0,1-3.33,3.25,7,7,0,0,1-2.23.36,10.61,10.61,0,0,1-8.82-5.69,9.12,9.12,0,0,1-1.16-4.6v0l.11-.08,0,0a7.21,7.21,0,0,0,.78.8l0,0,0,0,0,0h0v.11c0,.19,0,.39,0,.59l.38-.27.11-.08,0,0a8.34,8.34,0,0,0,1.25.78h0l0,.1s0,.09.05.14l0,0,.13-.07h0a8.42,8.42,0,0,0,1.46.51h0a4.66,4.66,0,0,0,.25.4l.33-.15.23-.1h0a8.24,8.24,0,0,0,1.14.09,6.48,6.48,0,0,0,.76-.06h.15A8.24,8.24,0,0,0,44,86.47a7.45,7.45,0,0,0,3.44-2.33l0,0h0l.58.1h.08a10.75,10.75,0,0,0,1.38.14h.07a2.94,2.94,0,0,0,.42,0h.15v0A7.9,7.9,0,0,1,50.59,90.62ZM74,103h0a10.25,10.25,0,0,1-2.36,1.41,9.36,9.36,0,0,1-3.71.8,8.65,8.65,0,0,1-5.35-1.87l0,0,0,0a13.53,13.53,0,0,0,6.21-9.68v-.05h.05a10.18,10.18,0,0,1,4.75,2.35l.07.08.06.06h0v0c-.08,1.06-.83,6.38-8.58,6.65a.38.38,0,0,0-.37.4.39.39,0,0,0,.39.37h0c7.13-.24,8.8-4.68,9.19-6.57l0-.1.06.08C76.16,99.51,74.51,102.23,74,103Zm3.79-7.41a9.79,9.79,0,0,1-2,5.53l-.08,0a5.35,5.35,0,0,0-1.31-5.4.75.75,0,0,0-.09-.09l-.1-.11-.14-.14c-2.54-2.33-5.78-2.75-8.91-3.15h0a37.5,37.5,0,0,1-3.84-.64,11.26,11.26,0,0,1-7.9-7.69v0h0a3.75,3.75,0,0,0,.43-.16l.22-.09c.27-.1.54-.2.8-.32l.74-.38h0l0,0,.05,0,.43-.26,0,0,0,0,.26.3-.09-.4v0h0c.25-.16.45-.31.64-.45l.22-.18.14-.12,0,0,0,0,.62.5c-.09-.33-.16-.59-.23-.83v0l0,0c.25-.24.48-.49.74-.79l.05-.06,0,.07a23.64,23.64,0,0,1,.88,2.73l.75.51a23.34,23.34,0,0,0-1.18-3.83v0a5.63,5.63,0,0,0,.37-.62l.11-.18,0-.06,0,.06a19.24,19.24,0,0,1,2.06,5.55l.7.4A19.33,19.33,0,0,0,60,78.43l0,0v0a4.64,4.64,0,0,0,.23-.72l.06-.21v0h0A24.78,24.78,0,0,1,76.4,89.68h0a7.34,7.34,0,0,0,.54,1.3l0,.1.11.25A12,12,0,0,1,77.75,95.6Zm-19.68-25c4.06-1.39,7.66-1.34,10.71.16A16.38,16.38,0,0,1,77,81.32c.74,2.83.69,5.59-.14,7.38l0,.08,0-.07a25.88,25.88,0,0,0-16.31-12h0v0a6.49,6.49,0,0,0,0-1.53v0h0a38.13,38.13,0,0,1,10.61-1.64L70.55,73a40.58,40.58,0,0,0-10.1,1.61l-.05,0v0a5.16,5.16,0,0,0-.27-1l0,0,0,0a41.5,41.5,0,0,1,8.75-1.61l-.11-.06c-.13-.08-.27-.17-.41-.24l-.25-.1-.18-.07a41.38,41.38,0,0,0-8,1.55h0l0,0a6.14,6.14,0,0,0-.52-.84l0,0,.05,0a43.6,43.6,0,0,1,6-1.39,12.67,12.67,0,0,0-2.4-.11c-1.22.26-2.5.6-3.92,1h0l0,0a7.13,7.13,0,0,0-.92-.9l-.06,0ZM52,69.45h.35a8.27,8.27,0,0,1,6.23,2.77,5.45,5.45,0,0,1,1.12,4.52c-.73,3.85-5.09,6.87-9.82,6.87h-.34A11.06,11.06,0,0,1,48,83.42h-.06l0,0a1.74,1.74,0,0,1,.11-.18,4.34,4.34,0,0,0,.28-.46l0,0h0v-.09h0A6.77,6.77,0,0,0,49,80.81a7.51,7.51,0,0,0-.31-3.88h0c0-.25.11-.49.18-.76a1.91,1.91,0,0,1-.31-.94c-.07.25-.15.51-.22.79l0,.1,0-.09a7.83,7.83,0,0,0-.74-1.19h0v0a.64.64,0,0,1,0-.07h0l0,0,0,0a1.71,1.71,0,0,0-.11-.14,1.16,1.16,0,0,0-.16-.21,8.17,8.17,0,0,0-1.08-1l0,0,0,0,.16-.1,0,0a18,18,0,0,1,.92-1.87c-.31.16-.61.34-.88.51-.18.35-.37.77-.57,1.27l0,0-.05,0a9,9,0,0,0-1.14-.69l-.06,0,0,0A11,11,0,0,1,52,69.45ZM75.54,42.64a7.59,7.59,0,0,1,6,3.76,8.38,8.38,0,0,1,1.37,5.11,4.78,4.78,0,0,1-2.06,3.73,4.26,4.26,0,0,1-2.32.65,5.64,5.64,0,0,1-1.93-.35,8.36,8.36,0,0,1-4.07-3.4c-2.1-3.29-1.79-7.26.69-8.85A4.27,4.27,0,0,1,75.54,42.64Zm-4.71,7.61v0l0,0A23.7,23.7,0,0,0,66,52.12a25.53,25.53,0,0,0-4.78,3.14l-.31.26a7,7,0,0,0-.66.78,6.34,6.34,0,0,1-1,1.1,15.63,15.63,0,0,0-2.33.76l-.14.06.09-.12c2.57-3.34,4.38-5.66,4.5-5.82s3.35-4.46,8.1-9.69h0c1.79.16,2,1.17,2,1.21v0h0A7.07,7.07,0,0,0,70.83,50.25Zm.33-10.39c-.15.16-.41.4-.73.71v0l0,0c-.12.22-.15.39-.09.5a.33.33,0,0,0,.25.12h0v0a3.4,3.4,0,0,1,2.19,1.43l0,0,0,0-.74.5,0,0a2,2,0,0,0-.64-.7A3.48,3.48,0,0,0,69.74,42a2.59,2.59,0,0,0-1.3.68l0,0-.06,0c-4.47,5-7.49,9-7.52,9.05l-.1.13c-1.63,2.09-3.48,4.48-5.34,6.91l-.05.07-.65.94a14.77,14.77,0,0,1,4.47-1.62l.33-.09c.39-.09.79-.58,1.42-1.37h0a5.21,5.21,0,0,1,.56-.67l.29-.25a24.2,24.2,0,0,1,4.64-3A22.15,22.15,0,0,1,71.06,51h0v0c.1.23.23.46.35.68l.09.16,0,.05h0a17.07,17.07,0,0,0-6.39,2.87,10.51,10.51,0,0,0-1.37,1.28l.91-.23.11,0c.19-.18.41-.38.68-.59a16.87,16.87,0,0,1,6.34-2.82h0v0l0,0s0,0,0,.05c.14.2.29.39.44.58l.14.18,0,0h-.06A16,16,0,0,0,68,55.17c.49-.08,1-.16,1.55-.22a17.23,17.23,0,0,1,3.24-1.11h0v0a10.35,10.35,0,0,0,.81.79l.06,0-.08,0h.12a7.76,7.76,0,0,0,1.07.77l.13.09h-.16a36.17,36.17,0,0,0-13.16,2,.45.45,0,0,0-.23.2.42.42,0,0,0,0,.29.39.39,0,0,0,.49.25,33.69,33.69,0,0,1,15.47-1.79l.16,0h.08c12.72,2,17.31,13,17.5,13.45a.37.37,0,0,0,.35.24.4.4,0,0,0,.15,0,.39.39,0,0,0,.21-.5,23,23,0,0,0-3.57-5.54,24.19,24.19,0,0,0-12-7.75l-.12,0,.12,0a4.32,4.32,0,0,0,1-.48h0l.16,0,.17,0A53.87,53.87,0,0,1,91,57.32c-.18-.24-.37-.46-.56-.69a53.42,53.42,0,0,0-8.49-1.18h-.1l.07-.06a5.12,5.12,0,0,0,.69-.77v0h0a64.28,64.28,0,0,1,6.52.72l-.24-.22a4.16,4.16,0,0,0-.36-.29l0,0-.17-.13c-1.8-.27-3.59-.46-5.3-.57h-.07L83,54a5.94,5.94,0,0,0,.38-.9v0h0c1,0,1.94.12,3,.21-.42-.23-.85-.45-1.3-.66l-1.51-.09h-.05l.05-.18c0-.26.11-.52.14-.79v-.16a.66.66,0,0,1,0-.14v-.05h0a16.35,16.35,0,0,1,5.7,3.23c6.25,5.51,7.36,15,7.55,17.79v.08l-.06,0a18.27,18.27,0,0,0-6.34-1.83,10.91,10.91,0,0,0-2.74,0c-6.48.73-9.53-1.64-12-3.55-1.55-1.2-2.88-2.23-4.64-2.08-.3,0-.6,0-.89,0A13.07,13.07,0,0,1,63.77,63h0v0c-.35-.31-.68-.66-1-1a7.17,7.17,0,0,0-3.49-2.46,3.89,3.89,0,0,0-1.7,0,15.18,15.18,0,0,0-3.36,1.64l-.62.47a.3.3,0,0,1-.08.08l-.25.22s-.3.25-.67.64a6.17,6.17,0,0,0-.48.54l-.36.47a4,4,0,0,0-.23.34h0c-1.52,2-3,3.93-4.41,5.79h0A11.36,11.36,0,0,0,43.67,72l0,0h0l-.06,0,0,0h0v0c0-.25,0-.51,0-.75l0-.19v0h.08a1.5,1.5,0,0,1,0,.22c0,.11,0,.23,0,.34,1.48-1.88,2.89-3.67,4.32-5.45L50.21,63c3.08-3.86,7.17-8.91,12.13-15,1.24-1.5,2.61-3.09,4.19-4.86l.06-.08,2.1-2.36.07,0h0l.3-.3h0a.17.17,0,0,1,.06-.06c.33-.31.64-.59.92-.83,0-.29,0-.63,0-1a16,16,0,0,1,.73-4.42v0h0a21.32,21.32,0,0,1,.83-2.35l0,0h0a3.62,3.62,0,0,0,.59.19h0l0,.05a19.58,19.58,0,0,0-1.4,5.21c0,.28,0,.53,0,.77a5.18,5.18,0,0,0,.11.87l.17-.09h0a54.73,54.73,0,0,1,8.44-5h0v0c.12.27.27.52.4.75l0,0,0,0A51.53,51.53,0,0,0,71.16,39.86Zm7.93-.34a21.21,21.21,0,0,0-7,.68l0-.08c.51-.38,1.08-.78,1.68-1.18h0a21.74,21.74,0,0,1,5.28-.27h0v0a5,5,0,0,0,0,.77v.05Zm.13-1.9a.69.69,0,0,0,0,.13s0,.07,0,.1v0h0a22.39,22.39,0,0,0-3.59,0l0-.07c2.09-1.25,4-2.22,4.76-2.58l0,.06A5.88,5.88,0,0,0,79.22,37.62ZM96.9,41.49c-.64,2.91-3.77,4.8-7.46,4.8A11.08,11.08,0,0,1,87,46c-4.67-1-7.84-4.72-7.07-8.24a5.31,5.31,0,0,1,1-2.06l0,0,0,0a3.64,3.64,0,0,0,.45.43l0,0,0,0a4.36,4.36,0,0,0-.46.69c-.08.26-.16.55-.24.88l0,0a8.75,8.75,0,0,1,.78-.72l.15-.43,0-.1-.08-.06-.08-.07,0,0h0l0,0,.07.06.27.21c.19.13.38.26.57.37a5.7,5.7,0,0,0,.54.3l.11.06.12.06.07,0,.21.09a7.07,7.07,0,0,0,.69.27h0l.1,0,.32.11,0,0h0v0l-.34-.11a15.23,15.23,0,0,0-.68,3.42l.18.09.38.21A14.58,14.58,0,0,1,84.93,38v0h0l.1,0,.11,0c.31.08.63.15,1,.2h0l0,.08H86A15.32,15.32,0,0,0,85.31,42l.5.15h0a15,15,0,0,1,.74-3.79h0v0h0v0h0a11,11,0,0,0,3.09,0h0v0h0c0,.09-.07.18-.1.26a15.7,15.7,0,0,0-.78,2.68,5.51,5.51,0,0,0,.57-.06,15.69,15.69,0,0,1,.56-2c.1-.3.26-.67.38-1l0,0h0l1.37-.36,0,.08A18.16,18.16,0,0,0,90.64,41l.62-.19a19.91,19.91,0,0,1,1.25-3.26h0a11.67,11.67,0,0,0,1.24-.56l.11-.05L94,36.8a10,10,0,0,0,1-.66h0l0,0,0,0,.06.07h0A6,6,0,0,1,96.9,41.49ZM80.51,35.2h0l0,0h0l-.07,0h0l0,0Zm15.63-1.08a10.58,10.58,0,0,1-5.89,3.25,11.43,11.43,0,0,1-2.3.23c-3.93,0-7.24-2-7.86-5.13a6,6,0,0,1,1.6-5.2A10.58,10.58,0,0,1,87.58,24a12.17,12.17,0,0,1,2.32-.23,9.91,9.91,0,0,1,4.35,1,6,6,0,0,1,3.49,4.17A6,6,0,0,1,96.14,34.12Zm15.26-2.7a14.64,14.64,0,0,0-5.06.3,9.26,9.26,0,0,0-2.07.71A12.2,12.2,0,0,1,99,33.76a10.2,10.2,0,0,1-1.45-.1h-.06l0,0,.06-.1a2.39,2.39,0,0,0,.13-.21l.09-.18.06-.1.14-.29,0-.07,0,.06.16.2a2.37,2.37,0,0,1,.23.3l.64,0a6.07,6.07,0,0,0-.45-.64l-.12-.16-.32-.06h-.05l0,0c.06-.17.15-.38.21-.6a7.7,7.7,0,0,0,.2-1v-.08l.05.05a12,12,0,0,1,1,1.07c.22,0,.44,0,.65,0a15,15,0,0,0-1-1.2h-.65v0a4.45,4.45,0,0,0,0-.53v0a6.27,6.27,0,0,0,0-.74s0-.08,0-.12,0-.22,0-.34a1.33,1.33,0,0,0,0-.19l0-.07h0v0l0,0v0l.6-.08-.83-.57h0l0-.09,0-.07h0L98,27.4s0,0,0,0,0,0,0-.05a6.35,6.35,0,0,0-.48-.81h0l-.2-.27,0,0h0l.06-.05,0,.05.2.27a23.23,23.23,0,0,1,2.85,1.68l.72-.14a24.83,24.83,0,0,0-4.41-2.53l.44.46L97.1,26c-.18-.21-.38-.41-.61-.63h0l-.33-.28-.26-.2-.3-.21h0a8.79,8.79,0,0,0-.84-.5l-.06,0,0-.07.06,0a7.07,7.07,0,0,1,.84.49h.7a18.63,18.63,0,0,1,13.24,5.81.38.38,0,0,0,.54,0,.35.35,0,0,0,.13-.26.34.34,0,0,0-.09-.28,19.69,19.69,0,0,0-13.91-6c-.58,0-1.17,0-1.78.08v0h0l0,0h0l-.08,0-.19-.08h0A10.3,10.3,0,0,0,93,23.46l-.17,0-.12,0-.21-.05c-.24-.06-.49-.11-.74-.15l-.13,0h0c-.14,0-.28-.05-.42-.06H91l-.67,0c-.26,0-.52,0-.78,0h-.32a13.27,13.27,0,0,0-1.83.22l-.68.17-.2.05c-.29.08-.58.17-.88.28h0l-.07,0-.64.26h0c-.27.12-.53.25-.77.38a.2.2,0,0,0-.08,0l0-.08.08,0c.26-.14.52-.26.77-.37l0-.07.06-.1,0,0,0,0h0a17.54,17.54,0,0,1,3.91-2.58c4.52-2.17,8.71-2.49,12.45-.94,5.8,2.4,9,8.59,10.08,11.15l0,.07Z"/><path class="cls-1" d="M104.29,25l.85.41c.77,0,1.44,0,2.09.06l-.36-.43C106,25,105.12,25,104.29,25Z"/><path class="cls-1" d="M43.21,36.67A.38.38,0,0,0,43,36.5a.37.37,0,0,0-.29,0,.38.38,0,0,0-.12.53,31.24,31.24,0,0,1,4.29,13.64,33.54,33.54,0,0,1-.05,6.76.38.38,0,0,0,.07.29.41.41,0,0,0,.25.15h.06a.39.39,0,0,0,.38-.33C47.58,57.48,49.15,46.2,43.21,36.67Z"/><path class="cls-1" d="M46,54.16c0-.25,0-.46,0-.7a21.18,21.18,0,0,1-2.64-2.08l.21,1A20.79,20.79,0,0,0,46,54.16Z"/><path class="cls-1" d="M41.25,40.16l.18.22c.09-.24.18-.48.28-.71-.17-.24-.34-.49-.48-.71-.12.26-.22.51-.32.77C41,39.88,41.14,40,41.25,40.16Z"/><path class="cls-1" d="M41.68,42.88a20.15,20.15,0,0,0,3.25,2.92c-.09-.34-.19-.67-.28-1a23.61,23.61,0,0,1-2.86-2.74A1.77,1.77,0,0,0,41.68,42.88Z"/><path class="cls-1" d="M41.49,36.54l-.07-.19c-.16-.34-.29-.63-.4-.91-.15.22-.3.48-.48.78.13.31.29.61.48,1C41.15,37,41.3,36.79,41.49,36.54Z"/><path class="cls-1" d="M85.11,25.63a6.54,6.54,0,0,0-.59.3,15.18,15.18,0,0,0-.24,1.6c.2-.16.41-.31.64-.46a13.72,13.72,0,0,1,.26-1.47Z"/><path class="cls-1" d="M39.2,40.93l-.39-.61c-.08.32-.14.6-.18.85l.18.29c.11.18.22.37.34.54l0,0a8.83,8.83,0,0,1,.15-.92Z"/><path class="cls-1" d="M39.34,38.63c-.11.27-.2.52-.28.76.17.28.35.55.51.79.07-.23.16-.47.26-.73C39.67,39.18,39.5,38.91,39.34,38.63Z"/><path class="cls-1" d="M40.58,37.9c-.16-.29-.33-.61-.47-.93-.13.25-.25.5-.37.75v0l.47.88C40.32,38.37,40.45,38.14,40.58,37.9Z"/><path class="cls-1" d="M44.09,54.15l0,.07c.11.26.21.55.3.79A16,16,0,0,0,46,56.12c0-.22,0-.44,0-.67a18.07,18.07,0,0,1-2-1.54Z"/><path class="cls-1" d="M47.19,39.31l-.11-.12c-.12-.12-.23-.25-.36-.37q-.21.34-.42.66l-.17.27.3.75Z"/><path class="cls-1" d="M46,52.19c0-.23,0-.47-.05-.71A22.48,22.48,0,0,1,43,49.19v.05c0,.28.07.57.11.84A19.66,19.66,0,0,0,46,52.19Z"/><path class="cls-1" d="M102.67,21.52a37.67,37.67,0,0,0-8.3,1.83c.54-.05,1.07-.09,1.58-.09a42.83,42.83,0,0,1,7.29-1.39Z"/><path class="cls-1" d="M45.29,47.31a22.5,22.5,0,0,1-5.15-5c0,.25-.09.54-.13.85a20.66,20.66,0,0,0,5.44,5C45.4,47.84,45.35,47.58,45.29,47.31Z"/><path class="cls-1" d="M40.6,40.58c-.08.25-.16.49-.22.72l.6.77c0-.18.09-.44.17-.76C41,41.07,40.78,40.83,40.6,40.58Z"/><path class="cls-1" d="M45.78,50.26c0-.28-.06-.52-.1-.74a24.1,24.1,0,0,1-2.85-2.3c0,.29,0,.58.07.88A19.13,19.13,0,0,0,45.78,50.26Z"/><path class="cls-1" d="M84.88,65.9c-.25-.48-.53-.94-.78-1.34-.31,0-.61-.07-.89-.12.31.46.56.87.78,1.26Z"/><path class="cls-1" d="M91.65,35.26c-.18.08-.37.14-.55.21l.12.26a5.25,5.25,0,0,0,.25.55l.55-.2c-.1-.19-.18-.38-.26-.56Z"/><path class="cls-1" d="M92.61,33l-.5.35,0,.12.18.56.51-.31c-.08-.23-.15-.45-.21-.67Z"/><path class="cls-1" d="M91.11,33.92c-.19.1-.37.18-.53.25a1.72,1.72,0,0,1,.07.21c0,.12.08.23.13.35q.27-.09.54-.21c0-.13-.1-.27-.14-.4S91.14,34,91.11,33.92Z"/><path class="cls-1" d="M96,31.93c-.14.18-.29.38-.45.57,0,.11.06.22.08.32s.1.39.16.58a4.41,4.41,0,0,0,.44-.58c-.07-.22-.12-.45-.18-.68A1.6,1.6,0,0,0,96,31.93Z"/><path class="cls-1" d="M93.15,34.53l-.45.25-.06,0,.09.24q.1.3.24.6l.51-.29c-.09-.21-.17-.42-.25-.62Z"/><path class="cls-1" d="M94.11,33.85l0,.15c.08.24.17.49.26.74a3.11,3.11,0,0,0,.33-.29l.13-.12c-.11-.3-.21-.6-.3-.88C94.42,33.59,94.27,33.73,94.11,33.85Z"/><path class="cls-1" d="M90.06,35.79l-.09,0-.49.12.09.19c.09.18.18.38.29.57H90l.14,0a1.41,1.41,0,0,0,.22-.06l.12,0c-.1-.19-.2-.38-.29-.57A1.24,1.24,0,0,0,90.06,35.79Z"/><path class="cls-1" d="M94.24,32.61l.07-.06c-.06-.22-.11-.44-.15-.65s0-.14,0-.22c-.16.18-.32.34-.48.49a2.46,2.46,0,0,1,.07.29c0,.17.08.36.13.54C94,32.88,94.11,32.74,94.24,32.61Z"/><path class="cls-1" d="M87.94,35.2c0-.06,0-.12-.08-.19a4.16,4.16,0,0,1-.54.23l.05.11h.08l.54,0s0,0,0,0Z"/><path class="cls-1" d="M87,24.93l-.59.17a12.13,12.13,0,0,0-.24,1.27l.63-.29c.08-.44.17-.83.25-1.16Z"/><path class="cls-1" d="M89.59,35.08l.11,0c0-.11-.09-.22-.13-.32l-.06-.17-.57.15s0,.09,0,.13l0,.07c0,.09.06.18.1.27Z"/><path class="cls-1" d="M86.57,36.14c-.23,0-.47,0-.7,0l0,.1.26.51.14,0a6,6,0,0,0,.61.1l-.29-.53Z"/><path class="cls-1" d="M88.38,36.09l-.59,0h0l.07.15.29.58.66,0c-.11-.19-.2-.37-.29-.54A1.86,1.86,0,0,0,88.38,36.09Z"/><path class="cls-1" d="M88.54,25.53h.06c.07-.35.14-.67.21-.95a3.7,3.7,0,0,0-.48.07l-.14,0c-.07.3-.14.64-.2,1Z"/><path class="cls-1" d="M104.9,29.69l-.1,0a11.86,11.86,0,0,1,1.25,1.52l.07,0,.11,0,.26-.05.13,0a12.14,12.14,0,0,0-1.2-1.51Z"/><path class="cls-1" d="M103.23,30.06l-.4.09a11.37,11.37,0,0,1,1.4,1.71l.46-.19,0,0a12.67,12.67,0,0,0-1.3-1.64Z"/><path class="cls-1" d="M92.65,23.28a38.22,38.22,0,0,1,8.7-2.43l-.21-.09-.34-.13h0l-.15-.05a36.25,36.25,0,0,0-8.66,2.56C92.18,23.17,92.42,23.22,92.65,23.28Z"/><path class="cls-1" d="M102.56,31.82c-.17.07-.34.12-.52.18a1.33,1.33,0,0,0,.14.19c.09.13.2.26.28.4l.51-.19a3.83,3.83,0,0,0-.27-.39Z"/><path class="cls-1" d="M90.49,23h0l0,0a37.68,37.68,0,0,1,8.19-2.85C98.4,20,98,20,97.66,19.91a35.09,35.09,0,0,0-8,3h.19Z"/><path class="cls-1" d="M100.76,30.47a13.66,13.66,0,0,1,.91,1c.23-.06.41-.12.55-.17a12.16,12.16,0,0,0-.8-.92Z"/><path class="cls-1" d="M95.93,31.21a1.12,1.12,0,0,0,.85-.66,2.15,2.15,0,0,0,.2-1.22,2.21,2.21,0,0,0-.46-1.15,1.16,1.16,0,0,0-1-.46c-.7.08-1.16.91-1.05,1.88a2.2,2.2,0,0,0,.45,1.15A1.14,1.14,0,0,0,95.93,31.21ZM95.6,28.3h0a.64.64,0,0,1,.43.25,1.67,1.67,0,0,1,.33.84,1.75,1.75,0,0,1-.14.9h0c-.06.11-.19.32-.4.34h0a.56.56,0,0,1-.43-.25,1.67,1.67,0,0,1-.33-.84C95,28.85,95.29,28.34,95.6,28.3Z"/><path class="cls-1" d="M107.07,29.6a11,11,0,0,1,1,1.29l.11,0,.48-.05a10.18,10.18,0,0,0-.77-1.06A6.12,6.12,0,0,0,107.07,29.6Z"/><path class="cls-1" d="M86.71,23.35c.24-.07.47-.12.7-.17l.21,0,.12,0A32,32,0,0,1,94.32,20a17.68,17.68,0,0,0-3.26.86c-.5.23-1,.46-1.44.69A21.8,21.8,0,0,0,86.71,23.35Z"/><path class="cls-1" d="M103.13,27.58a23.42,23.42,0,0,0-3-1.91q-.91-.21-1.86-.33a25.23,25.23,0,0,1,4.18,2.38Z"/><path class="cls-1" d="M104.81,29c-.29-.28-.61-.58-.94-.86l-.17,0-.47.11c.36.29.69.56,1,.84Z"/><path class="cls-1" d="M102.94,29.48c-.31-.3-.65-.6-1-.88l-.66.16c.38.3.71.58,1,.86Z"/><path class="cls-1" d="M100.68,32.36l-.59.09.13.17a4.84,4.84,0,0,1,.33.46l.55-.1c-.08-.14-.18-.28-.27-.41Z"/><path class="cls-1" d="M99.31,29.19c.3.23.61.47.9.73l.69-.08c-.29-.28-.6-.54-.9-.78Z"/><path class="cls-1" d="M80.63,39.38a3,3,0,0,0,.06.42l.23.24.08.08c0-.37.09-.73.15-1.08V39l-.54.35Z"/><path class="cls-1" d="M75.6,85.15l1,.34c0-.19,0-.39,0-.59-.53-.2-1.07-.37-1.61-.52C75.18,84.63,75.39,84.88,75.6,85.15Z"/><path class="cls-1" d="M64.23,76.78c.27.1.55.22.9.37A36.62,36.62,0,0,1,74,76.84c-.08-.13-.17-.25-.25-.37l-.15-.2A36.15,36.15,0,0,0,64.23,76.78Z"/><path class="cls-1" d="M73,82.31l.66.64a25.19,25.19,0,0,1,2.83.65L76.4,83h0A21.88,21.88,0,0,0,73,82.31Z"/><path class="cls-1" d="M56.21,80.26c0,.2-.06.41-.08.61a6.71,6.71,0,0,0,.62-.49c0-.24.07-.49.1-.73l0-.21c-.2.15-.41.31-.63.46C56.24,80,56.22,80.14,56.21,80.26Z"/><path class="cls-1" d="M70.84,80.48l.77.6a28.39,28.39,0,0,1,4.53.7v-.06a.75.75,0,0,0,0-.16L76,81.34,76,81.18A28.68,28.68,0,0,0,70.84,80.48Z"/><path class="cls-1" d="M66.68,77.87l.88.47c.92-.08,1.85-.12,2.8-.12a34.55,34.55,0,0,1,4.61.31c-.08-.17-.17-.33-.25-.49l-.06-.1A33.91,33.91,0,0,0,66.68,77.87Z"/><path class="cls-1" d="M68.91,79.13c.28.18.56.36.83.55H70a32.09,32.09,0,0,1,5.68.52c-.07-.19-.14-.39-.23-.6A31.31,31.31,0,0,0,68.91,79.13Z"/><path class="cls-1" d="M75.94,95.27c0,.24-.08.48-.13.73a5.85,5.85,0,0,1,.41.68,3.15,3.15,0,0,0,.09-.42l.06-.25a8,8,0,0,0-.42-.77Z"/><path class="cls-1" d="M70.32,91.43c0,.26,0,.53,0,.82l.46.15.1,0c0-.28,0-.56,0-.83v-.17l-.58-.23Z"/><path class="cls-1" d="M73.72,87.16a13.91,13.91,0,0,1,.85,5.36l.51.45a15.15,15.15,0,0,0-.46-4.54C74.35,88,74.05,87.59,73.72,87.16Z"/><path class="cls-1" d="M65.12,80.16a15.83,15.83,0,0,1,3.15,9.41l.56.15a16.88,16.88,0,0,0-2.61-9C65.89,80.54,65.54,80.36,65.12,80.16Z"/><path class="cls-1" d="M67.7,81.62a15.7,15.7,0,0,1,2.64,8.59c.19.07.39.14.57.22a16.51,16.51,0,0,0-2.06-8C68.5,82.15,68.11,81.88,67.7,81.62Z"/><path class="cls-1" d="M72.92,92.45l-.42-.25v.12c0,.26,0,.52-.06.8.14.07.27.15.4.23l.09.06c0-.31.06-.61.08-.91Z"/><path class="cls-1" d="M74.47,93.85c0,.2,0,.41-.06.62l.11.08.16.13.16.17,0,0c0-.2.05-.4.06-.59L75,94c-.15-.16-.32-.3-.48-.44A2.45,2.45,0,0,0,74.47,93.85Z"/><path class="cls-1" d="M70.67,83.88a14.19,14.19,0,0,1,1.86,7.3l0,0,.47.26a15.57,15.57,0,0,0-1.3-6.56C71.39,84.55,71,84.2,70.67,83.88Z"/><path class="cls-1" d="M76.25,91.68a1.65,1.65,0,0,1-.07-.16s-.05-.09-.07-.14a.79.79,0,0,0,0-.09,13.43,13.43,0,0,1,0,2.84,7.09,7.09,0,0,1,.49.82c.07-.48.12-.91.14-1.31A12.15,12.15,0,0,0,76.25,91.68Z"/><path class="cls-1" d="M72.8,75.16l-.48-.56A37.91,37.91,0,0,0,61.5,75.87l1,.3A38.63,38.63,0,0,1,72.8,75.16Z"/><path class="cls-1" d="M83.57,68.8a6.43,6.43,0,0,1-.72-.13c.1.34.18.66.24,1l.73.1a6.25,6.25,0,0,0-.16-.62A3,3,0,0,1,83.57,68.8Z"/><path class="cls-1" d="M51.72,77.52l-.17,0h-.07a2.29,2.29,0,0,1-.07.28c0,.12-.06.24-.08.37l.58-.17h0a2.29,2.29,0,0,1,.07-.28c0-.05,0-.11,0-.17h-.31Z"/><path class="cls-1" d="M53,78.68c0,.14-.05.27-.07.41l.6-.24c0-.18.06-.34.09-.5a2.25,2.25,0,0,0,.05-.22L53,78.4Z"/><path class="cls-1" d="M53.2,77.43v0c.2-.09.4-.19.63-.32h0c-.19.08-.4.14-.59.2Z"/><path class="cls-1" d="M54.59,79.45c0,.18-.06.36-.08.56.18-.09.35-.2.52-.3l.08,0c0-.24.08-.48.12-.7a1.7,1.7,0,0,1,0-.22l-.62.37Z"/><path class="cls-1" d="M54.43,80.94v.16c0,.26,0,.53,0,.81l.42-.22L55,81.6q0-.5.06-1C54.83,80.74,54.63,80.85,54.43,80.94Z"/><path class="cls-1" d="M52.78,80.13c0,.19,0,.38-.05.57l.58-.19c0-.25,0-.5.07-.74v0c-.18.07-.38.16-.59.23Z"/><path class="cls-1" d="M49.94,81.12v-.36a1.09,1.09,0,0,0,0-.18l-.57,0h0v.22c0,.1,0,.2,0,.3h.58Z"/><path class="cls-1" d="M49.79,77a17.37,17.37,0,0,0-.39,2.74l.57,0a17.67,17.67,0,0,1,.35-2.49A3.68,3.68,0,0,1,49.79,77Z"/><path class="cls-1" d="M50,82H49.4v.22c0,.21,0,.43,0,.65h.1a.55.55,0,0,0,.18,0h.32c0-.23,0-.45,0-.66S50,82,50,82Z"/><path class="cls-1" d="M51.08,82.78l.58-.08c0-.22,0-.43,0-.64s0-.18,0-.27l-.58.08c0,.1,0,.2,0,.3S51.07,82.57,51.08,82.78Z"/><path class="cls-1" d="M51.19,79.21c0,.12,0,.25,0,.38a5.05,5.05,0,0,0,.56-.12h0c0-.15,0-.31.06-.46s0-.11,0-.17l-.58.15Z"/><path class="cls-1" d="M51.65,80.52c0-.07,0-.14,0-.22a5.18,5.18,0,0,1-.58.13c0,.08,0,.16,0,.23s0,.26,0,.39c.2,0,.39,0,.57-.09Z"/><path class="cls-1" d="M68.25,90.81c0,.3,0,.61,0,.94l.09,0,.47.09c0-.32,0-.64,0-.94v-.21l-.57-.16C68.26,90.64,68.25,90.72,68.25,90.81Z"/><path class="cls-1" d="M66.16,90.09c0,.11,0,.21,0,.31,0,.33,0,.67,0,1l.47.07h.09c0-.37,0-.72,0-1.06V90.2Z"/><path class="cls-1" d="M49.3,91.32a4.75,4.75,0,0,0,.32-.57,23.43,23.43,0,0,0-3.53.62,19.21,19.21,0,0,0-2.28.73l.81.3c.65-.23,1.18-.39,1.69-.52A23.6,23.6,0,0,1,49.3,91.32Z"/><path class="cls-1" d="M42.47,92.66l-.55.24c.23.1.48.21.73.29l.67-.28.22-.08-.72-.31Z"/><path class="cls-1" d="M69.7,94.79l-.15,0h-.09c0,.2-.09.4-.14.58l0,.15a7.81,7.81,0,0,0,1.63-.27A10.88,10.88,0,0,0,69.7,94.79Z"/><path class="cls-1" d="M42.38,90.85l-.53.21c.16.11.34.21.51.31l.09,0c.22-.1.44-.18.66-.26l.21-.07c-.24-.12-.44-.24-.64-.35Z"/><path class="cls-1" d="M45.6,89.8c-.76.19-1.4.37-2,.58.2.11.43.23.67.34a22.9,22.9,0,0,1,4.86-1l.77-.06H50c0-.17.06-.35.09-.52h-.24l-.95.08c-.43,0-.91.11-1.47.2a1.79,1.79,0,0,1-.56.33A2.4,2.4,0,0,1,45.6,89.8Z"/><path class="cls-1" d="M48.43,87.64l-.2,0a2.39,2.39,0,0,1-.06.53l.75-.06.92,0h.34v-.15c0-.13,0-.25,0-.38h-.61l-.78,0Z"/><path class="cls-1" d="M48,92.69a23.17,23.17,0,0,0-3.22.88,5.81,5.81,0,0,0,2.1-.29A4.85,4.85,0,0,0,48,92.69Z"/><path class="cls-1" d="M37.71,88.25l.19-.12,0-.06c-.09-.14-.18-.29-.26-.44l-.2.12c-.17.12-.35.23-.52.36l0,.09.06.13.12.18.08.12C37.35,88.49,37.53,88.37,37.71,88.25Z"/><path class="cls-1" d="M37,86.78l.18-.12c-.07-.17-.13-.34-.19-.51l0-.06-.14.09-.54.37c.06.2.12.39.2.59C36.62,87,36.79,86.9,37,86.78Z"/><path class="cls-1" d="M38.59,87.67l.32-.18.15-.08c-.1-.16-.2-.31-.3-.49l-.14.08-.07,0-.25.14a4.83,4.83,0,0,0,.26.45Z"/><path class="cls-1" d="M38.64,89.62l.23-.14c-.13-.16-.26-.32-.36-.46l-.27.16c-.17.1-.34.2-.51.32l.36.46Z"/><path class="cls-1" d="M40.86,91.54l-.72.37a4.23,4.23,0,0,0,.4.24l.16.1c.28-.15.55-.28.82-.41l0,0c-.2-.12-.38-.23-.55-.35Z"/><path class="cls-1" d="M39.6,90.3l-.25.13-.55.32.44.42.62-.36.18-.1-.41-.38Z"/><path class="cls-1" d="M42.82,89.43l.21-.07L42.49,89l-.27.09-.4.14c.18.15.35.28.52.4A4.59,4.59,0,0,1,42.82,89.43Z"/><path class="cls-1" d="M72.5,96.27a7.24,7.24,0,0,0-.65-.48,10.71,10.71,0,0,1-2.93.94c-.09.24-.18.5-.29.75A11.29,11.29,0,0,0,72.5,96.27Z"/><path class="cls-1" d="M62.74,87.73c-.06-.59-.12-1.13-.19-1.64-.25-.12-.47-.24-.68-.36.09.52.17,1.06.23,1.66C62.31,87.51,62.52,87.63,62.74,87.73Z"/><path class="cls-1" d="M64.4,86a17.83,17.83,0,0,0-2.85-7.29l-.89-.27a16.74,16.74,0,0,1,3.11,7.28Z"/><path class="cls-1" d="M62.86,90.42c0-.63,0-1.16,0-1.68h0l-.6-.29c0,.54.06,1.12.07,1.67Z"/><path class="cls-1" d="M64.71,88.62c0-.64-.09-1.16-.15-1.63l-.6-.23c.07.53.12,1.12.16,1.63C64.33,88.48,64.53,88.56,64.71,88.62Z"/><path class="cls-1" d="M64.19,91l.57.2c0-.56,0-1.1,0-1.72l-.07,0-.5-.16C64.19,89.77,64.2,90.37,64.19,91Z"/><path class="cls-1" d="M72.64,97.86a6.37,6.37,0,0,0,.38-1,14.79,14.79,0,0,1-5,1.86c-.15.27-.3.52-.47.78A13.5,13.5,0,0,0,72.64,97.86Z"/><path class="cls-1" d="M66.47,86.74a16.16,16.16,0,0,0-3-7.32L62.4,79a15.07,15.07,0,0,1,3.46,7.56Z"/><path class="cls-1" d="M66.55,89.17l.18,0c0-.53-.07-1-.13-1.59L66,87.47c.07.47.13,1,.17,1.62Z"/><path class="cls-1" d="M56,83.4c.13.53.26,1.14.39,1.84.28.34.51.61.74.85-.1-.63-.22-1.25-.34-1.84C56.42,83.9,56.15,83.61,56,83.4Z"/><path class="cls-1" d="M58.67,85c-.12-.63-.24-1.23-.37-1.78-.28-.24-.54-.46-.77-.68.14.54.28,1.14.43,1.84C58.21,84.63,58.44,84.83,58.67,85Z"/><path class="cls-1" d="M67.12,101.47a7.52,7.52,0,0,0,4.56-2.17,15.11,15.11,0,0,1-5.05,1.48c-.22.28-.44.53-.65.76A10.11,10.11,0,0,0,67.12,101.47Z"/><path class="cls-1" d="M60.21,87.21c.07.56.12,1.14.16,1.73.23.16.42.29.62.41,0-.61-.08-1.17-.13-1.7Z"/><path class="cls-1" d="M58.19,85.63c.11.61.19,1.2.27,1.79.2.18.41.37.63.55-.07-.6-.14-1.19-.22-1.77C58.64,86,58.42,85.83,58.19,85.63Z"/><path class="cls-1" d="M60.75,86.57c-.07-.57-.16-1.14-.26-1.69l-.72-.49c.12.56.23,1.14.31,1.72Z"/><path class="cls-1" d="M52.72,81.57c0,.09,0,.18,0,.27s0,.43,0,.65l.57-.18c0-.24,0-.47,0-.69a1.55,1.55,0,0,1,0-.22l-.49.14Z"/><path class="cls-1" d="M80.79,47.54l.75-.12-.18-.32L81.3,47c-.24,0-.51.08-.79.14l.26.36Z"/><path class="cls-1" d="M80,49.15a12.51,12.51,0,0,1,2-.48c0-.15-.1-.29-.16-.43a12.69,12.69,0,0,0-2.07.5l.18.39Z"/><path class="cls-1" d="M80.77,46.21l0,0c-.09-.13-.19-.27-.29-.39-.28,0-.62.1-1,.18.12.11.25.24.38.38C80.19,46.29,80.5,46.24,80.77,46.21Z"/><path class="cls-1" d="M76.81,44.31a12.43,12.43,0,0,1,1.45-.39,6.68,6.68,0,0,0-.67-.31,11.68,11.68,0,0,0-1.39.44l.38.16Z"/><path class="cls-1" d="M79.72,45l0,0c-.12-.12-.24-.24-.37-.35a11.88,11.88,0,0,0-1.24.28,5.39,5.39,0,0,1,.5.33C79,45.15,79.39,45.07,79.72,45Z"/><path class="cls-1" d="M59,75.51a24.65,24.65,0,0,0-.85,3.22,5.64,5.64,0,0,0,.8-2A4.41,4.41,0,0,0,59,75.51Z"/><path class="cls-1" d="M81.94,49.59h-.08l-.55.14a14.71,14.71,0,0,0-3.74,1.58,5.17,5.17,0,0,0,.46.24,14.17,14.17,0,0,1,3.42-1.4l.61-.14.28-.06a.57.57,0,0,1,0-.13c0-.1,0-.21,0-.31Z"/><path class="cls-1" d="M76.35,52.69v0c-.12-.08-.25-.16-.38-.26l-.07.05-.36.3.36.27Z"/><path class="cls-1" d="M75.81,43.18a3.76,3.76,0,0,0-1.49.16,7.07,7.07,0,0,0-.63.36h0a8,8,0,0,1,.85,0A11.13,11.13,0,0,1,75.81,43.18Z"/><path class="cls-1" d="M76.06,51.19l.09-.07-.34-.3-.13.09-.24.17a3.34,3.34,0,0,0,.33.32A1.94,1.94,0,0,1,76.06,51.19Z"/><polygon class="cls-1" points="75.74 51.43 75.74 51.43 75.74 51.43 75.74 51.43"/><path class="cls-1" d="M76.19,54l-.08.06c-.15.13-.32.27-.47.42l.29.15.13.06c.18-.17.37-.32.55-.47Z"/><path class="cls-1" d="M77.39,54.86l-.37.27a3.63,3.63,0,0,0,.54.15L78,55l.14-.1-.53-.17Z"/><path class="cls-1" d="M82.08,52.84c.07-.18.12-.35.17-.52a14.46,14.46,0,0,0-2.44,1,13.44,13.44,0,0,0-1.53.9l.59.16c.44-.28.8-.49,1.15-.67A14.38,14.38,0,0,1,82.08,52.84Z"/><path class="cls-1" d="M81.29,54.19a16.85,16.85,0,0,0-2.14,1.14,3.58,3.58,0,0,0,1.43-.51A3.39,3.39,0,0,0,81.29,54.19Z"/><path class="cls-1" d="M82.25,50.91l-.59.17h0l-.07,0a14.65,14.65,0,0,0-3.65,1.66l.5.2a14.7,14.7,0,0,1,3.35-1.47l.55-.16h.07c0-.15,0-.3,0-.45h-.06Z"/><path class="cls-1" d="M75.78,45.84l-.14.08.31.33.53-.26L76,45.7Z"/><path class="cls-1" d="M67.25,61.68c.3.35.54.65.77,1,.33.09.66.18,1,.26-.26-.37-.47-.67-.67-.93Z"/><path class="cls-1" d="M72.72,62.77c.3.41.6.84.91,1.31a5.07,5.07,0,0,1,1.26.79,18.4,18.4,0,0,0-1-1.73C73.47,63,73.1,62.88,72.72,62.77Z"/><path class="cls-1" d="M73.17,44.62l-.5-.11,0,0-.21.28v.35c.24-.2.48-.37.72-.54Z"/><path class="cls-1" d="M75.93,64a16.52,16.52,0,0,1,1.23,2.27c.3.19.66.45,1.06.75a15.88,15.88,0,0,0-1-2.24A9.77,9.77,0,0,0,75.93,64Z"/><path class="cls-1" d="M80.92,68c-.33-.17-.63-.35-.91-.53a11.2,11.2,0,0,1,.49,1.45,7.11,7.11,0,0,0,.79.29c-.08-.33-.18-.65-.29-1A2.25,2.25,0,0,0,80.92,68Z"/><path class="cls-1" d="M83.33,68a14.55,14.55,0,0,0-.77-1.88l-.93-.32a15.89,15.89,0,0,1,.9,2C82.8,67.82,83.07,67.89,83.33,68Z"/><path class="cls-1" d="M82,65.09c-.22-.38-.43-.78-.67-1.14a8.61,8.61,0,0,1-1.2-.52c.28.38.54.77.78,1.14A7.9,7.9,0,0,0,82,65.09Z"/><path class="cls-1" d="M70.06,62.33c.17.21.33.44.48.66l.19.27,1,.23c-.21-.32-.44-.67-.67-1Z"/><path class="cls-1" d="M93.32,61.13c-.1-.21-.22-.43-.35-.69-1.85-.61-3.63-1.12-5.31-1.5.44.3.83.57,1.18.84C90.31,60.16,91.77,60.61,93.32,61.13Z"/><path class="cls-1" d="M64.23,60.82c.22.23.46.5.74.83l1.22.43c-.2-.28-.43-.56-.71-.89C65,61.06,64.57,60.92,64.23,60.82Z"/><path class="cls-1" d="M92.3,59.26c-.14-.23-.28-.46-.43-.68A53.57,53.57,0,0,0,84.31,57q.72.33,1.47.75A60.6,60.6,0,0,1,92.3,59.26Z"/><path class="cls-1" d="M94.24,63.31q-.13-.36-.27-.69c-1.06-.41-2.11-.79-3.12-1.12.3.29.6.58.88.88C92.64,62.7,93.45,63,94.24,63.31Z"/><path class="cls-1" d="M95,65.6c-.06-.22-.13-.45-.21-.73l-1.5-.75c.24.31.49.63.75,1Z"/><path class="cls-1" d="M95.09,66.81c.14.23.29.47.45.76l0-.16c0-.13-.05-.25-.08-.38l-.15-.1,0,0Z"/><path class="cls-1" d="M75.18,44.51l-.07,0,.55.23.12-.06.13-.07-.51-.1Z"/><path class="cls-1" d="M48.62,71.93c.29-.55.56-1,.81-1.43l-.07,0c-.22,0-.44.09-.66.16-.26.45-.54,1-.83,1.56Z"/><path class="cls-1" d="M47.91,73.53c.07-.19.14-.38.21-.55l-.06,0-.67.31-.21.59,0,.11.69-.28A1.67,1.67,0,0,1,47.91,73.53Z"/><path class="cls-1" d="M49.43,73.28A5,5,0,0,1,50,72.9l0-.08.24-.54-.22,0a3.29,3.29,0,0,0-.43.09c-.13.26-.25.55-.36.83l0,.1.12,0Z"/><path class="cls-1" d="M71.8,47.68l.13-.13,0-.1c0-.15,0-.3-.07-.46l0,0-.12.12a4.85,4.85,0,0,0,0,.66Z"/><path class="cls-1" d="M50.72,71.37c.25-.44.47-.82.67-1.12h0l-.6,0c-.21.34-.45.75-.7,1.23Z"/><path class="cls-1" d="M73.32,51.21l-.11.11c-.11.12-.23.24-.34.37a.16.16,0,0,0,0,.07.37.37,0,0,0,0,.11,1.34,1.34,0,0,0,.11.14l.05.07.34-.37.12-.13,0,0Z"/><path class="cls-1" d="M72.23,49.18l.08-.09c-.06-.17-.11-.34-.16-.51l0,0L71.8,49l0,.09c0,.16.06.32.1.48Z"/><path class="cls-1" d="M72.75,50.55l.12-.13c-.07-.13-.13-.27-.19-.4l0,0-.09.1-.33.37c.06.15.13.3.21.46Z"/><path class="cls-1" d="M54.85,72.62a.77.77,0,0,0-.07.16,3.19,3.19,0,0,1,.43.32h0c.1-.23.21-.47.32-.68l.41-.78q.09-.18.18-.33L56,71.22,55.66,71l-.23.42-.06.11-.36.69Z"/><path class="cls-1" d="M55.91,74.34a1.72,1.72,0,0,1,0,.64,2.51,2.51,0,0,1-.6,1.15c-.22.75-.38,1.39-.51,2,.21-.12.43-.26.64-.41A22.56,22.56,0,0,1,57,73l.33-.71,0-.06v0L57,71.89h0a.36.36,0,0,1,0,.09l-.06.13-.4.86C56.29,73.37,56.11,73.81,55.91,74.34Z"/><path class="cls-1" d="M51.56,72c0,.08-.07.16-.11.23l0,.07c.21,0,.43-.08.64-.1a.36.36,0,0,0,0-.09l0-.1h-.59Z"/><path class="cls-1" d="M56.39,78.83c.22-.17.44-.35.67-.55.13-.67.25-1.21.4-1.72a23.33,23.33,0,0,1,1-2.86,3.88,3.88,0,0,0-.33-.57,24,24,0,0,0-1.24,3.36A19.83,19.83,0,0,0,56.39,78.83Z"/><path class="cls-1" d="M53.79,72.37a18.31,18.31,0,0,1,.92-1.69l-.53-.16q-.42.69-.93,1.74Z"/><path class="cls-1" d="M52.54,71.22h.05c.2-.33.38-.64.56-.91l-.44,0-.15,0c-.19.3-.38.63-.58,1Z"/><path class="cls-1" d="M76.79,51.82l-.26.18.4.26a3.53,3.53,0,0,1,.32-.21l.13-.08L77,51.71Z"/><path class="cls-1" d="M79.19,49l-.6.27-.23.1a14.88,14.88,0,0,0-2,1.1c.11.1.23.19.36.29a13.16,13.16,0,0,1,1.49-.84c.42-.2.82-.38,1.18-.52Z"/><path class="cls-1" d="M77.1,53.34a3.53,3.53,0,0,0-.34.24l.39.19.06,0,.43-.29.14-.09-.48-.21Z"/><path class="cls-1" d="M79.85,47.29l-.77.24h0c.11.14.19.26.27.38l.06,0c.24-.07.49-.15.71-.2L80,47.54Z"/><path class="cls-1" d="M78.74,46.16l-.62.21-.07,0c.12.11.25.23.36.35l.14-.05.55-.17L79,46.4Z"/><path class="cls-1" d="M77.72,47l-.36-.33c-.29.12-.59.26-.9.41a3,3,0,0,1,.19.41C77.05,47.27,77.4,47.11,77.72,47Z"/><path class="cls-1" d="M76.92,48.93a14.39,14.39,0,0,1,1.35-.63l.15-.06.27-.11-.27-.38-.12,0-.13.06a13.17,13.17,0,0,0-1.28.59A2.58,2.58,0,0,1,76.92,48.93Z"/><path class="cls-1" d="M77.23,45.18l-.41.17-.08,0,.46.31.14-.06.4-.15,0,0A5.3,5.3,0,0,0,77.23,45.18Z"/><path class="cls-1" d="M74.21,45.07l0,0a2.72,2.72,0,0,1,.55.18l.11-.06a.18.18,0,0,1,.07,0L74.36,45Z"/><path class="cls-1" d="M73.34,49.9l0,0,.16-.15a3.13,3.13,0,0,1-.31-.33h0l-.06.05,0,.07C73.22,49.65,73.28,49.78,73.34,49.9Z"/><path class="cls-1" d="M74.81,51.62l-.22.19q.15.18.3.33l.25-.21.12-.11-.32-.31Z"/><path class="cls-1" d="M74,52.42c-.11.11-.22.22-.33.35a3,3,0,0,0,.3.33l.33-.34.15-.15-.3-.33Z"/><path class="cls-1" d="M73.78,50.71,74,51l0,.05.2-.18.1-.09c-.09-.11-.17-.23-.27-.37l-.07.07,0,0Z"/><path class="cls-1" d="M75.05,53.22l-.15.14-.36.34c.12.11.24.2.35.29l.38-.36.13-.12a3.61,3.61,0,0,1-.3-.25Z"/></g></g></svg>