<svg xmlns="http://www.w3.org/2000/svg" viewBox="0 0 215.82 107.76"><defs><style>.cls-1{fill:#19d3c5;}.cls-2{fill:#898a8d;}</style></defs><title>Asset 3</title><g id="Layer_2" data-name="Layer 2"><g id="Layer_3" data-name="Layer 3"><path class="cls-1" d="M204.46,62.69c-.06,0-1,.74-2.68,2.23a43.8,43.8,0,0,1-5.62,4,13.62,13.62,0,0,1-6.52,2.14c-1.37,0-2-.54-2-1.62a10.71,10.71,0,0,1,.54-2.42q13.47-4.32,13.47-8.35,0-2.34-2.61-2.34a14.9,14.9,0,0,0-5.49,1.35l.07-.05c-.19.07-.35.15-.53.23l-.22.09a36.2,36.2,0,0,0-9.55,6l-1.15,1a43.8,43.8,0,0,1-5.62,4A13.62,13.62,0,0,1,170,71.08c-1.37,0-2-.54-2-1.62a10.71,10.71,0,0,1,.54-2.42q13.47-4.32,13.47-8.35,0-2.34-2.61-2.34c-2.22,0-5.08.93-8.56,2.8a31.54,31.54,0,0,0-6.34,4.46,37.74,37.74,0,0,1-13.81,7.74c5.57-7.6,8.95-12.07,10.17-13.45a210.75,210.75,0,0,0,19.75-16.35l-.07.06c4.73-4,8.31-7,10.67-9.22q6.06-5.58,6.07-9.06c0-1.61-.87-2.41-2.59-2.41q-4.38,0-14.82,10A163,163,0,0,0,166.59,45c-2.87,3.53-5.35,6.59-7.49,9.25l-4.69,6a.1.1,0,0,1,.05,0l-.22.27c-6.72,4.28-14.94,9.31-18.9,10.93l0,0q9.36-12.76,10.53-13.84,4.81-4.09,7.41-6.07,16.5-13.47,22.58-19T182,23.33c0-1.61-.87-2.41-2.59-2.41q-4.38,0-14.82,10A163,163,0,0,0,151.33,45c-2.71,3.33-5.06,6.23-7.12,8.78-2.56,3.17-8.31,8.16-10,9.57l-1.2.94c-.43.33-.9.7-1.44,1.15,0,0-3.32,2.47-4.91,1.77.11,0,1.18-1.17,1.3-1.3.48-.5.95-1,1.38-1.56a9.88,9.88,0,0,0,2-3.59,4.72,4.72,0,0,0-.05-2.71,2.69,2.69,0,0,0-1.9-1.59,10.45,10.45,0,0,0-4.94.07A19.93,19.93,0,0,0,120,58.23c-.57.28-1.13.58-1.69.89a36.05,36.05,0,0,0-4.14,2.61c-.38.29-.68.6-1,.89l.3-.32a76.94,76.94,0,0,1-6.86,5.28l-.33.2c-3.55,2.17-6.16,3.3-7.74,3.3-1.37,0-2.06-.57-2.06-1.71q0-2.5,4-7.32c2.68-3.2,4.76-4.81,6.25-4.81.59,0,.89.21.89.63a4.41,4.41,0,0,1-.71,1.87,4.44,4.44,0,0,0-.72,1.79,1.11,1.11,0,0,0,1.25,1.25,2.69,2.69,0,0,0,2.19-1.3,4.48,4.48,0,0,0,.94-2.63c0-1.66-1-2.5-3.11-2.5s-4.68,1-8.17,2.89S93.34,63,92,64.65a.8.8,0,0,0-.09.36v.18a12.33,12.33,0,0,0,2.59-1.88q-2.6,3.22-2.59,6,0,3.22,4.73,3.22c3.21,0,6.73-1.31,10.53-3.93a41.93,41.93,0,0,0,4.35-3.32l1.87-1.82a9,9,0,0,0-2.2,5.76q0,3.31,4.37,3.31,3.93,0,10.18-4.38a3.32,3.32,0,0,0,1.6.27c.9,0,2.47-.71,4.73-2.14a22,22,0,0,0,2-1.41c.19-.15.37-.29.61-.46l1-.89.55-.46,2.07-1.75q-28,35.18-28,44.42a1.81,1.81,0,0,0,2,2.05q4.73,0,11.78-11.42a98.46,98.46,0,0,0,8.12-16.25c.36-1.13.75-2.29,1.16-3.48.12-.36.23-.61.35-.93h0l.81-2.13c1.21-.63,9-4.74,17-9.81h0l.18-.09-2.34,3q-23.81,30.54-23.83,39.07a1.81,1.81,0,0,0,2,2.05q4.72,0,11.78-11.42a98.46,98.46,0,0,0,8.12-16.25c.36-1.13.75-2.29,1.16-3.48a11.79,11.79,0,0,1,1.43-3.21c.36-.21.68-.37,1-.57,2.83-1.14,9.36-4.09,14.32-8.89a9,9,0,0,0-2.14,5.26q0,3.31,4.91,3.31a13.63,13.63,0,0,0,3.88-.62l-.05,0c3.28-.47,9.45-5.12,11.81-7l.22-.17.79-.63.2-.15a9,9,0,0,0-2.1,5.2c0,2.21,1.63,3.31,4.91,3.31a17.5,17.5,0,0,0,8.74-2.77A33.76,33.76,0,0,0,203.92,64c.54-.54.81-.89.81-1.07A.24.24,0,0,0,204.46,62.69ZM169,66.08a28.1,28.1,0,0,1,3.84-5.19q3.12-3.47,4.91-3.47c.71,0,1.07.28,1.07.82q0,4.74-9.82,7.93Zm8.84-29.58Q190.25,22,193.55,22c.95,0,1.42.53,1.42,1.6q0,3.3-14.18,16L164.4,53.85l-1.25.83Q169.8,45.85,177.84,36.5ZM147.49,55.19q6.8-9.07,15.09-18.69Q175,22,178.29,22c1,0,1.42.53,1.42,1.6q0,3.3-14.19,16l-18,15.66ZM124.56,66.11q-4.83,5.51-8.3,5.5A1.1,1.1,0,0,1,115,70.37c0-1.85,1.51-4.32,4.55-7.41a27.93,27.93,0,0,1,7-5.63,2.6,2.6,0,0,1,2.15-.09,1.35,1.35,0,0,1,.72,1.21c0,.43,0,1.3-.46,1.52Q125.72,61.41,124.56,66.11Zm1,26.21q-8,13.74-11.52,13.75c-.53,0-.8-.3-.8-.9q0-2.31,8.84-15.35Q128,81,133.3,73.94h.09A92.26,92.26,0,0,1,125.54,92.32Zm15.26,0q-8,13.74-11.51,13.75-.81,0-.81-.9,0-2.31,8.84-15.35,6-8.83,11.24-15.88h.09A91.68,91.68,0,0,1,140.8,92.32Zm56.61-34.9c.71,0,1.07.28,1.07.82q0,4.74-9.82,7.93v-.09a28.1,28.1,0,0,1,3.84-5.19Q195.62,57.43,197.41,57.42Z"/><path class="cls-2" d="M212.64,0V23.61c-1.44,3.44-5.35,5.32-11.77,5.64H200a17.5,17.5,0,0,1-3-.26c-5.17-1.11-8.1-2.89-8.82-5.33V0h-3.18V21.86a8.21,8.21,0,0,0,2.78,6.33,18.33,18.33,0,0,0,10.83,3.91c.21,0,.33.08.33.25V51.22c0,.71.49,1.17,1.49,1.39,1,0,1.5-.69,1.5-2.08V32.35a.23.23,0,0,1,.22-.25,19.68,19.68,0,0,0,4.06-.55q9.54-2.93,9.54-8.88V0Z"/><path class="cls-2" d="M1.65.07H0V3.12H14V51s0,0,0,0v1.62H17V3.12H31v-3H1.65Z"/><path class="cls-2" d="M62,.07H60.22a24.69,24.69,0,0,0-3.84.37Q45.52,3,45.52,10.46V42.23a8,8,0,0,0,1.76,5.23,17.52,17.52,0,0,0,12.83,5.15H62A19,19,0,0,0,66.66,52q10.05-2.82,10-9.11V10a7.17,7.17,0,0,0-1.87-4.9A17.32,17.32,0,0,0,62,.07ZM73.67,42.92a4.71,4.71,0,0,1-1.75,3.4,16.92,16.92,0,0,1-10.64,3.37c-.66,0-1.71-.08-3.15-.23q-9.57-1.89-9.57-6.65V9.28q2-5.85,12.61-6.28c.51,0,1.6.07,3.26.22q9.24,2,9.24,6.54Z"/><path class="cls-2" d="M107.2.14H92.87c-.78,0-1.24.55-1.39,1.65V50.85c.12,1.18.62,1.76,1.5,1.76h13.38a24.77,24.77,0,0,0,4.68-.37q11.52-2.45,11.52-9.65V9.79a10.41,10.41,0,0,0-.37-2.19Q118.76.51,107.2.14Zm12.32,43a1.19,1.19,0,0,1-.11.58q-2,5.31-12.1,5.81H94.51V3.18h13.24a18.84,18.84,0,0,1,4.9.69q6.87,2.34,6.87,5.71Z"/><path class="cls-2" d="M154.54.14h-.36a25.27,25.27,0,0,0-6.87.92Q138,3.79,138,10.6v42h3.18V27.82H167.6V52.61h3.18V10a8.38,8.38,0,0,0-.37-2.42Q166.84.55,154.54.14ZM167.6,24.82H141.13V10a4.41,4.41,0,0,1,1.13-2.78q4.32-4.06,11.3-4.06h1.61a19.72,19.72,0,0,1,6.25,1q6.18,2.34,6.18,5.27V24.82Z"/></g></g></svg>